<svg width="256" height="38" viewBox="0 0 256 38" fill="none" xmlns="http://www.w3.org/2000/svg">
<mask id="mask0_1_652" style="mask-type:luminance" maskUnits="userSpaceOnUse" x="2" y="0" width="33" height="37">
<path d="M34.0124 0.832031H2.9467V36.1277H34.0124V0.832031Z" fill="white"/>
</mask>
<g mask="url(#mask0_1_652)">
<path d="M2.94621 35.9066L11.9128 35.9176L22.0926 9.4957L13.1258 9.48242L2.94621 35.9066Z" fill="#0732A2"/>
<path d="M20.6102 0.832153L9.07593 9.63946H26.6883L20.6102 0.832153Z" fill="#0732A2"/>
<path d="M22.8805 10.9543L19.1884 20.554L21.5413 26.1607H17.0679L14.9585 31.557H23.4161L25.3108 36.1278H34.0119L22.8805 10.9543Z" fill="#019E66"/>
</g>
<path d="M40.0774 31.2799L49.2615 8.07103H54.069L63.1867 31.2799H57.484L53.0744 19.5097C52.9196 19.0456 52.7427 18.5482 52.5439 18.0177C52.367 17.4872 52.1901 16.9346 52.0134 16.3599C51.8365 15.7852 51.6708 15.2327 51.516 14.7022C51.3613 14.1717 51.2286 13.6743 51.1182 13.2102L52.0797 13.177C51.947 13.7296 51.8033 14.2712 51.6487 14.8017C51.4939 15.3321 51.3281 15.8626 51.1513 16.3931C50.9745 16.9236 50.7865 17.4541 50.5877 17.9846C50.4108 18.493 50.223 19.0235 50.024 19.5761L45.6475 31.2799H40.0774ZM44.4539 26.837L46.2443 22.5268H56.8541L58.6445 26.837H44.4539ZM64.5549 31.2799V13.6743H69.6278L69.8267 17.2551L68.7326 17.653C68.9757 16.8572 69.4067 16.1389 70.0256 15.4979C70.6666 14.8347 71.4292 14.3043 72.3133 13.9064C73.1975 13.5085 74.1258 13.3097 75.0984 13.3097C76.4246 13.3097 77.5409 13.5859 78.4471 14.1385C79.3533 14.669 80.0276 15.4758 80.4696 16.5589C80.9338 17.6199 81.1658 18.935 81.1658 20.5044V31.2799H75.8279V20.9023C75.8279 20.1949 75.7284 19.6091 75.5294 19.1449C75.3305 18.6808 75.0321 18.3382 74.6342 18.1172C74.2364 17.8961 73.739 17.7966 73.1422 17.8187C72.678 17.8187 72.247 17.8961 71.8492 18.0509C71.4513 18.1834 71.0977 18.3935 70.7882 18.6808C70.5009 18.9461 70.2798 19.2555 70.1251 19.6091C69.9704 19.9629 69.893 20.3607 69.893 20.8028V31.2799H67.2074C66.6327 31.2799 66.1133 31.2799 65.6491 31.2799C65.207 31.2799 64.8423 31.2799 64.5549 31.2799ZM92.364 31.6114C90.6619 31.6114 89.1257 31.2136 87.7553 30.4179C86.407 29.6222 85.346 28.5391 84.5724 27.1687C83.7987 25.7762 83.4119 24.2178 83.4119 22.4937C83.4119 20.7254 83.7987 19.156 84.5724 17.7856C85.346 16.3931 86.407 15.299 87.7553 14.5032C89.1257 13.7075 90.6619 13.3097 92.364 13.3097C93.9332 13.3097 95.37 13.597 96.6742 14.1717C98.0004 14.7243 99.0393 15.4868 99.7908 16.4594L96.9062 19.9739C96.6189 19.5982 96.2652 19.2555 95.8452 18.9461C95.4253 18.6367 94.9611 18.3935 94.4527 18.2166C93.9443 18.0398 93.4138 17.9514 92.8613 17.9514C92.0213 17.9514 91.2809 18.1504 90.6398 18.5482C89.9988 18.924 89.5015 19.4545 89.1478 20.1396C88.7942 20.8249 88.6173 21.5985 88.6173 22.4606C88.6173 23.3005 88.7942 24.063 89.1478 24.7483C89.5235 25.4114 90.0319 25.9419 90.673 26.3397C91.314 26.7377 92.0323 26.9365 92.8281 26.9365C93.4027 26.9365 93.9332 26.8592 94.4195 26.7045C94.9058 26.5497 95.3479 26.3286 95.7457 26.0413C96.1658 25.754 96.5526 25.4114 96.9062 25.0135L99.7908 28.528C99.0393 29.4564 97.9893 30.2079 96.641 30.7826C95.2926 31.3352 93.8669 31.6114 92.364 31.6114ZM101.711 31.2799V6.74481H106.983V17.2551L105.889 17.653C106.132 16.8572 106.563 16.1389 107.182 15.4979C107.823 14.8347 108.585 14.3043 109.47 13.9064C110.354 13.5085 111.282 13.3097 112.255 13.3097C113.581 13.3097 114.697 13.5859 115.603 14.1385C116.51 14.669 117.183 15.4758 117.625 16.5589C118.09 17.6199 118.322 18.935 118.322 20.5044V31.2799H112.984V20.9023C112.984 20.1949 112.885 19.6091 112.686 19.1449C112.487 18.6808 112.188 18.3382 111.791 18.1172C111.393 17.8961 110.895 17.7966 110.299 17.8187C109.834 17.8187 109.403 17.8961 109.005 18.0509C108.608 18.1834 108.254 18.3935 107.944 18.6808C107.657 18.9461 107.436 19.2555 107.281 19.6091C107.127 19.9629 107.049 20.3607 107.049 20.8028V31.2799H104.364C103.789 31.2799 103.269 31.2799 102.805 31.2799C102.363 31.2799 101.999 31.2799 101.711 31.2799ZM130.051 31.6114C128.238 31.6114 126.613 31.2246 125.176 30.4511C123.74 29.6553 122.613 28.5723 121.795 27.2018C120.977 25.8092 120.568 24.2399 120.568 22.4937C120.568 20.7033 120.977 19.1229 121.795 17.7524C122.613 16.3599 123.74 15.2769 125.176 14.5032C126.613 13.7075 128.238 13.3097 130.051 13.3097C131.886 13.3097 133.51 13.7075 134.924 14.5032C136.361 15.2769 137.489 16.3599 138.307 17.7524C139.124 19.1229 139.533 20.7033 139.533 22.4937C139.533 24.2399 139.124 25.8092 138.307 27.2018C137.489 28.5723 136.361 29.6553 134.924 30.4511C133.51 31.2246 131.886 31.6114 130.051 31.6114ZM130.051 27.036C130.847 27.036 131.543 26.837 132.139 26.4392C132.759 26.0413 133.245 25.4998 133.599 24.8146C133.952 24.1294 134.118 23.3558 134.096 22.4937C134.118 21.5874 133.952 20.7917 133.599 20.1065C133.245 19.3992 132.759 18.8576 132.139 18.4819C131.543 18.0841 130.847 17.8851 130.051 17.8851C129.277 17.8851 128.581 18.0841 127.962 18.4819C127.343 18.8797 126.857 19.4213 126.503 20.1065C126.149 20.7917 125.972 21.5874 125.972 22.4937C125.972 23.3558 126.149 24.1294 126.503 24.8146C126.857 25.4998 127.343 26.0413 127.962 26.4392C128.581 26.837 129.277 27.036 130.051 27.036ZM142.008 31.2799V13.6743H147.081L147.313 19.4102L146.318 18.2829C146.606 17.3546 147.048 16.5147 147.645 15.7632C148.242 15.0116 148.948 14.4148 149.766 13.9727C150.606 13.5306 151.479 13.3097 152.386 13.3097C152.784 13.3097 153.149 13.3428 153.479 13.409C153.833 13.4532 154.143 13.5306 154.408 13.6412L152.983 19.5097C152.739 19.3771 152.408 19.2665 151.988 19.1781C151.59 19.0677 151.17 19.0124 150.729 19.0124C150.242 19.0124 149.788 19.1008 149.368 19.2776C148.97 19.4324 148.617 19.6644 148.308 19.9739C148.021 20.2833 147.788 20.648 147.611 21.068C147.456 21.488 147.38 21.9633 147.38 22.4937V31.2799H142.008ZM156.664 31.2799V8.07103H166.943C168.557 8.07103 169.905 8.30313 170.988 8.76731C172.093 9.20938 172.933 9.86144 173.508 10.7235C174.083 11.5634 174.37 12.5912 174.37 13.807C174.37 15.1111 174.039 16.2052 173.375 17.0894C172.734 17.9735 171.806 18.5924 170.59 18.9461L170.557 18.2498C171.552 18.493 172.425 18.9019 173.176 19.4766C173.95 20.0292 174.547 20.7143 174.967 21.5321C175.386 22.328 175.597 23.2342 175.597 24.251C175.597 25.4224 175.386 26.4502 174.967 27.3344C174.569 28.2185 173.994 28.959 173.243 29.5559C172.513 30.1305 171.64 30.5616 170.623 30.8489C169.628 31.1362 168.523 31.2799 167.308 31.2799H156.664ZM162.036 26.5387H167.075C168.004 26.5387 168.722 26.3176 169.23 25.8755C169.761 25.4335 170.026 24.8036 170.026 23.9857C170.026 23.4773 169.894 23.0463 169.628 22.6926C169.385 22.339 169.031 22.0737 168.567 21.8969C168.103 21.7201 167.551 21.6316 166.91 21.6316H162.036V26.5387ZM162.036 17.3546H166.181C166.755 17.3546 167.242 17.2661 167.64 17.0894C168.037 16.8904 168.336 16.6252 168.535 16.2936C168.756 15.9399 168.866 15.531 168.866 15.0669C168.866 14.3595 168.623 13.807 168.137 13.409C167.65 13.0112 166.921 12.8123 165.948 12.8123H162.036V17.3546ZM186.61 31.6114C184.799 31.6114 183.173 31.2246 181.737 30.4511C180.3 29.6553 179.173 28.5723 178.354 27.2018C177.538 25.8092 177.128 24.2399 177.128 22.4937C177.128 20.7033 177.538 19.1229 178.354 17.7524C179.173 16.3599 180.3 15.2769 181.737 14.5032C183.173 13.7075 184.799 13.3097 186.61 13.3097C188.446 13.3097 190.07 13.7075 191.485 14.5032C192.921 15.2769 194.048 16.3599 194.866 17.7524C195.685 19.1229 196.093 20.7033 196.093 22.4937C196.093 24.2399 195.685 25.8092 194.866 27.2018C194.048 28.5723 192.921 29.6553 191.485 30.4511C190.07 31.2246 188.446 31.6114 186.61 31.6114ZM186.61 27.036C187.406 27.036 188.102 26.837 188.699 26.4392C189.318 26.0413 189.805 25.4998 190.158 24.8146C190.512 24.1294 190.677 23.3558 190.655 22.4937C190.677 21.5874 190.512 20.7917 190.158 20.1065C189.805 19.3992 189.318 18.8576 188.699 18.4819C188.102 18.0841 187.406 17.8851 186.61 17.8851C185.837 17.8851 185.141 18.0841 184.522 18.4819C183.903 18.8797 183.416 19.4213 183.063 20.1065C182.709 20.7917 182.532 21.5874 182.532 22.4937C182.532 23.3558 182.709 24.1294 183.063 24.8146C183.416 25.4998 183.903 26.0413 184.522 26.4392C185.141 26.837 185.837 27.036 186.61 27.036ZM206.824 31.6114C205.011 31.6114 203.387 31.2246 201.95 30.4511C200.514 29.6553 199.386 28.5723 198.568 27.2018C197.75 25.8092 197.342 24.2399 197.342 22.4937C197.342 20.7033 197.75 19.1229 198.568 17.7524C199.386 16.3599 200.514 15.2769 201.95 14.5032C203.387 13.7075 205.011 13.3097 206.824 13.3097C208.659 13.3097 210.283 13.7075 211.697 14.5032C213.134 15.2769 214.262 16.3599 215.08 17.7524C215.897 19.1229 216.306 20.7033 216.306 22.4937C216.306 24.2399 215.897 25.8092 215.08 27.2018C214.262 28.5723 213.134 29.6553 211.697 30.4511C210.283 31.2246 208.659 31.6114 206.824 31.6114ZM206.824 27.036C207.62 27.036 208.316 26.837 208.913 26.4392C209.532 26.0413 210.018 25.4998 210.372 24.8146C210.726 24.1294 210.891 23.3558 210.869 22.4937C210.891 21.5874 210.726 20.7917 210.372 20.1065C210.018 19.3992 209.532 18.8576 208.913 18.4819C208.316 18.0841 207.62 17.8851 206.824 17.8851C206.05 17.8851 205.354 18.0841 204.735 18.4819C204.116 18.8797 203.63 19.4213 203.276 20.1065C202.922 20.7917 202.745 21.5874 202.745 22.4937C202.745 23.3558 202.922 24.1294 203.276 24.8146C203.63 25.4998 204.116 26.0413 204.735 26.4392C205.354 26.837 206.05 27.036 206.824 27.036ZM223.888 26.1077L221.998 22.0626L230.186 13.6743H237.183L223.888 26.1077ZM218.782 31.2799V6.74481H224.119V31.2799H218.782ZM230.684 31.2799L224.551 23.3226L228.33 20.4049L237.017 31.2799H230.684ZM244.347 31.6114C242.666 31.6114 241.164 31.3462 239.838 30.8157C238.511 30.2631 237.45 29.5117 236.655 28.5612L239.904 25.7762C240.589 26.4613 241.363 26.9697 242.224 27.3012C243.086 27.6107 243.904 27.7654 244.678 27.7654C244.966 27.7654 245.219 27.7322 245.44 27.666C245.662 27.5997 245.85 27.5113 246.005 27.4007C246.182 27.2681 246.314 27.1245 246.403 26.9697C246.491 26.7928 246.535 26.594 246.535 26.3729C246.535 25.9308 246.347 25.5993 245.971 25.3782C245.794 25.2678 245.474 25.1351 245.01 24.9803C244.546 24.8036 243.949 24.6267 243.219 24.4498C242.18 24.1846 241.275 23.8642 240.501 23.4883C239.749 23.1126 239.13 22.6816 238.644 22.1953C238.201 21.7532 237.859 21.2448 237.616 20.6701C237.395 20.0954 237.285 19.4545 237.285 18.7471C237.285 17.6641 237.605 16.7136 238.246 15.8957C238.909 15.0779 239.771 14.4479 240.832 14.0059C241.894 13.5417 243.042 13.3097 244.28 13.3097C245.253 13.3097 246.17 13.4201 247.032 13.6412C247.917 13.8623 248.735 14.1717 249.485 14.5695C250.259 14.9674 250.944 15.4426 251.541 15.9952L248.723 19.1449C248.347 18.7692 247.905 18.4377 247.397 18.1504C246.888 17.8409 246.381 17.5978 245.872 17.4209C245.364 17.2219 244.888 17.1225 244.446 17.1225C244.115 17.1225 243.816 17.1557 243.551 17.2219C243.307 17.2661 243.098 17.3546 242.921 17.4872C242.766 17.5978 242.644 17.7414 242.556 17.9182C242.467 18.073 242.423 18.2498 242.423 18.4487C242.423 18.6918 242.479 18.9129 242.59 19.1119C242.722 19.2886 242.899 19.4545 243.12 19.6091C243.319 19.7197 243.661 19.8634 244.148 20.0402C244.656 20.217 245.319 20.416 246.137 20.637C247.175 20.9244 248.06 21.2559 248.789 21.6316C249.541 21.9854 250.138 22.4053 250.58 22.8916C250.956 23.2674 251.221 23.7094 251.376 24.2178C251.552 24.7041 251.64 25.2346 251.64 25.8092C251.64 26.9365 251.32 27.9423 250.679 28.8264C250.06 29.6884 249.198 30.3737 248.094 30.8821C247.01 31.3684 245.762 31.6114 244.347 31.6114Z" fill="#13294B"/>
</svg>
