<svg width="167" height="46" viewBox="0 0 167 46" fill="none" xmlns="http://www.w3.org/2000/svg">
<g clip-path="url(#clip0_1_621)">
<path d="M21.4002 44.9389C33.2192 44.9389 42.8004 35.3577 42.8004 23.5387C42.8004 11.7197 33.2192 2.13846 21.4002 2.13846C9.5812 2.13846 0 11.7197 0 23.5387C0 35.3577 9.5812 44.9389 21.4002 44.9389Z" fill="#C90000"/>
<path d="M61.1584 34.1559H60.9325C59.6217 33.8851 58.3405 33.4866 57.1073 32.9662C52.5592 31.3698 49.9137 29.1109 49.1707 26.1892C49.0991 25.8577 49.0638 25.5194 49.0653 25.1802C49.1726 23.4775 49.8951 21.8718 51.0984 20.6622C52.3364 19.3217 53.7557 18.1609 55.3152 17.2135C56.8707 16.2539 58.4742 15.3743 60.1193 14.578C60.1322 14.234 60.1725 13.8915 60.2398 13.5539H47.3635C47.2034 13.5604 47.044 13.5298 46.8977 13.4645C46.7514 13.3992 46.6222 13.3009 46.5202 13.1774C46.3238 12.9404 46.2172 12.6418 46.219 12.334C46.2204 12.0359 46.3271 11.7479 46.5202 11.5208C46.6222 11.3973 46.7514 11.299 46.8977 11.2337C47.044 11.1684 47.2034 11.1378 47.3635 11.1443H65.5861C65.7531 11.1354 65.9199 11.1646 66.0739 11.2299C66.2278 11.2951 66.3649 11.3946 66.4746 11.5208C66.6634 11.7494 66.7648 12.0376 66.7608 12.334C66.7681 12.6401 66.6667 12.9389 66.4746 13.1774C66.3649 13.3036 66.2278 13.4031 66.0739 13.4684C65.9199 13.5336 65.7531 13.5629 65.5861 13.5539H62.5741C62.4955 14.0779 62.4452 14.6058 62.4235 15.1352V15.4665C62.1624 18.5388 62.0369 21.5507 62.047 24.5025C62.047 27.3187 62.1675 30.1199 62.4235 32.9511V33.1319C62.4298 33.2865 62.3956 33.4401 62.3242 33.5775C62.2529 33.7148 62.147 33.8312 62.0169 33.915C61.7594 34.0752 61.4617 34.1588 61.1584 34.1559ZM59.9386 31.4602C59.7729 29.2163 59.6826 26.9422 59.6826 24.7886C59.6826 22.2736 59.7729 19.7737 59.9386 17.2587C58.5374 17.9395 57.184 18.7143 55.8875 19.5779C54.612 20.393 53.4777 21.4103 52.5291 22.5899C51.9369 23.2825 51.5878 24.15 51.5351 25.0597C51.5351 26.5657 52.5592 27.8759 54.6375 29.1109C56.2957 30.1195 58.0776 30.9092 59.9386 31.4602Z" fill="#C90000"/>
<path d="M68.568 38.8396C68.2708 38.8333 67.9844 38.7272 67.7548 38.5384C67.6331 38.4356 67.5371 38.3059 67.4743 38.1595C67.4116 38.0131 67.3838 37.8541 67.3933 37.6951C67.3933 33.6891 67.2879 29.638 67.0921 25.6471C66.9067 21.5869 66.4286 17.5453 65.6614 13.5539C65.498 13.5716 65.3327 13.5538 65.1768 13.5018C65.0209 13.4498 64.878 13.3649 64.7578 13.2527C64.5313 13.0239 64.4018 12.7163 64.3964 12.3943C64.3921 12.2338 64.4222 12.0742 64.4845 11.9261C64.5468 11.7781 64.64 11.6451 64.7578 11.5359C64.9784 11.3283 65.2683 11.2102 65.5711 11.2046C65.9622 11.1788 66.3546 11.1788 66.7457 11.2046C66.9872 11.2066 67.2207 11.2915 67.4071 11.445C67.5935 11.5985 67.7215 11.8113 67.7698 12.0479C67.9956 13.0404 68.1566 14.0466 68.2517 15.0599L68.5529 17.093V13.81C68.5531 11.2344 68.4173 8.66056 68.1463 6.09926V6.02396C68.1348 5.88667 68.1576 5.74867 68.2129 5.62244C68.2681 5.49622 68.3539 5.38576 68.4626 5.30108C68.6965 5.12885 68.9877 5.05334 69.2758 5.09024C69.5901 5.09114 69.8978 5.17982 70.1644 5.34626C70.6463 5.72276 70.9324 7.6655 71.0077 11.2046H74.0197C74.1867 11.1956 74.3535 11.2249 74.5075 11.2901C74.6615 11.3554 74.7985 11.4549 74.9083 11.5811C75.1013 11.8082 75.208 12.0962 75.2095 12.3943C75.2112 12.7021 75.1046 13.0007 74.9083 13.2377C74.7985 13.3639 74.6615 13.4634 74.5075 13.5286C74.3535 13.5939 74.1867 13.6231 74.0197 13.6142H71.0077C71.0077 16.5057 70.8119 20.5217 70.4204 25.6622C70.0288 30.8026 69.833 34.8186 69.833 37.7101C69.8327 37.8743 69.7961 38.0364 69.7258 38.1848C69.6555 38.3332 69.5533 38.4643 69.4264 38.5686C69.1801 38.7552 68.8768 38.8509 68.568 38.8396Z" fill="#C90000"/>
<path d="M81.5951 22.5899C80.7383 22.5804 79.8945 22.3798 79.1252 22.0025C78.0769 21.4397 77.2021 20.6013 76.5952 19.5779C75.958 18.6125 75.6177 17.4816 75.6163 16.3249C75.6163 15.5224 75.8193 14.7329 76.2063 14.0299C76.5934 13.3268 77.152 12.7331 77.8301 12.3039C78.7517 11.7 79.8306 11.3806 80.9324 11.3852C81.4799 11.3831 82.024 11.4696 82.5438 11.6413C83.7788 12.0479 84.8402 12.8599 85.5558 13.9454C86.2959 14.9832 86.6958 16.225 86.7004 17.4996C86.7026 18.3337 86.5009 19.1557 86.1131 19.8941C86.0783 19.9867 86.015 20.0658 85.9323 20.12C85.4697 20.858 84.8314 21.4699 84.0746 21.9009C83.3177 22.3319 82.4658 22.5686 81.5951 22.5899ZM87.5287 34.171C87.2253 34.1765 86.9287 34.0811 86.6853 33.8999C86.5566 33.7956 86.4551 33.6617 86.3895 33.5095C86.3239 33.3574 86.2963 33.1916 86.3088 33.0264C86.2836 31.7095 85.7429 30.455 84.8028 29.5325C83.6958 28.4482 82.3925 27.5844 80.9625 26.9874C79.7879 26.4904 78.2819 25.9482 76.4446 25.3609C76.1951 25.3044 75.9737 25.1616 75.8194 24.9577C75.6651 24.7537 75.5878 24.5018 75.6012 24.2465C75.5966 23.9362 75.6975 23.6335 75.8873 23.388C75.9824 23.2632 76.1056 23.1627 76.2469 23.0946C76.3883 23.0266 76.5437 22.9929 76.7006 22.9965H77.0771C78.8292 23.5199 80.5448 24.1589 82.2125 24.9091C83.9073 25.6439 85.4421 26.7029 86.7305 28.0265C87.9644 29.3704 88.6519 31.1267 88.6582 32.9511C88.6701 33.1148 88.6436 33.279 88.5809 33.4306C88.5181 33.5823 88.4208 33.7172 88.2968 33.8246C88.0764 33.997 87.8081 34.0969 87.5287 34.1107V34.171ZM81.6704 20.1652C82.0245 20.1757 82.3771 20.1135 82.7063 19.9823C83.0355 19.8511 83.3342 19.6538 83.5841 19.4025C83.8339 19.1512 84.0296 18.8514 84.1589 18.5215C84.2882 18.1916 84.3485 17.8387 84.336 17.4845C84.3486 16.5997 84.0441 15.7396 83.4776 15.0599C83.1711 14.6679 82.7867 14.3438 82.3486 14.1079C81.9105 13.872 81.4283 13.7295 80.9324 13.6894C80.272 13.6925 79.6292 13.9032 79.0951 14.2918C78.8202 14.4743 78.586 14.7117 78.4072 14.989C78.2284 15.2663 78.1088 15.5775 78.056 15.9032V16.3099C78.0471 16.8055 78.1446 17.2972 78.3421 17.7519C78.5395 18.2065 78.8323 18.6135 79.2005 18.9453C79.515 19.2925 79.8952 19.5737 80.3192 19.7727C80.7432 19.9718 81.2024 20.0847 81.6704 20.105V20.1652Z" fill="#C90000"/>
<path d="M105.525 34.1108C105.227 34.1108 104.937 34.0159 104.697 33.8397C104.562 33.7349 104.451 33.6029 104.371 33.4525C104.29 33.302 104.242 33.1364 104.23 32.9662C103.959 30.1952 103.823 27.394 103.823 24.5929C103.211 23.8901 102.608 23.1522 102.016 22.3791C101.682 23.8994 101.058 25.3413 100.179 26.626C99.9395 26.9666 99.6247 27.2472 99.2589 27.4457C98.8931 27.6443 98.4863 27.7555 98.0703 27.7705C97.7055 27.7739 97.3446 27.6958 97.0137 27.5421C96.6829 27.3884 96.3905 27.1629 96.1577 26.882C95.3937 25.9318 94.7699 24.8769 94.3053 23.7495C93.211 27.5145 92.4279 29.5225 91.956 29.7735C91.7323 29.9064 91.4781 29.979 91.218 29.9844C90.9348 29.995 90.6571 29.9042 90.4349 29.7283C90.3202 29.628 90.2305 29.5022 90.173 29.361C90.1154 29.2198 90.0917 29.0671 90.1036 28.9151V28.1772C90.134 27.5751 90.134 26.972 90.1036 26.37V26.2646C90.0929 26.1127 90.1171 25.9604 90.1746 25.8194C90.232 25.6784 90.3211 25.5524 90.4349 25.4513C90.6462 25.2874 90.9055 25.1974 91.1729 25.1953H91.3988C92.0795 23.1548 92.6476 21.0784 93.1005 18.9755C93.1536 18.7019 93.31 18.4592 93.5373 18.2978C93.7588 18.1602 94.0144 18.0872 94.2752 18.087C94.5259 18.0919 94.7705 18.1648 94.983 18.2978C95.206 18.4633 95.3612 18.7041 95.4198 18.9755C95.6429 20.0767 95.9501 21.1591 96.3384 22.2134C96.6019 22.9896 96.9346 23.7406 97.3324 24.4574C97.5884 24.9092 97.8294 25.1351 98.0703 25.1652C98.3113 25.1953 98.8986 24.5778 99.2902 23.3881C99.8178 21.9943 100.118 20.5248 100.179 19.0358C100.186 18.8728 100.225 18.7128 100.295 18.5654C100.365 18.4179 100.464 18.286 100.585 18.1773C100.807 17.974 101.098 17.8612 101.399 17.8611C101.596 17.8697 101.789 17.9247 101.962 18.0214C102.134 18.1182 102.282 18.2542 102.393 18.4183C102.905 19.2817 103.407 20.0799 103.899 20.8128C104.004 18.4032 104.14 15.9786 104.35 13.5539H88.4169C88.2545 13.5616 88.0925 13.5317 87.9435 13.4663C87.7946 13.401 87.6628 13.3021 87.5585 13.1774C87.4062 12.9457 87.3323 12.6712 87.3476 12.3943C87.3436 12.0979 87.445 11.8096 87.6338 11.5811C87.7381 11.4564 87.8699 11.3575 88.0188 11.2922C88.1678 11.2269 88.3298 11.1969 88.4922 11.2046H109.727C109.894 11.1956 110.061 11.2249 110.215 11.2901C110.369 11.3554 110.506 11.4549 110.615 11.5811C110.804 11.8096 110.906 12.0979 110.901 12.3943C110.909 12.7004 110.807 12.9992 110.615 13.2377C110.506 13.3639 110.369 13.4634 110.215 13.5286C110.061 13.5939 109.894 13.6231 109.727 13.6142H106.715C106.373 17.2888 106.198 20.9735 106.188 24.6682C106.188 27.4242 106.323 30.1952 106.564 32.9662V33.1319C106.578 33.2753 106.555 33.4197 106.497 33.5515C106.439 33.6833 106.348 33.7981 106.233 33.8849C106.027 34.0329 105.779 34.1119 105.525 34.1108Z" fill="#C90000"/>
<path d="M112.709 38.8396C112.412 38.8333 112.125 38.7272 111.896 38.5384C111.774 38.4356 111.678 38.3059 111.615 38.1595C111.552 38.0131 111.525 37.854 111.534 37.695C111.534 33.6891 111.429 29.638 111.233 25.6471C111.024 21.6298 110.52 17.6332 109.727 13.6895C109.561 13.6971 109.396 13.6687 109.243 13.6063C109.09 13.5439 108.951 13.449 108.838 13.328C108.612 13.0991 108.482 12.7916 108.477 12.4696C108.473 12.309 108.503 12.1494 108.565 12.0014C108.627 11.8534 108.721 11.7203 108.838 11.6112C109.059 11.4036 109.349 11.2855 109.652 11.2799C110.043 11.254 110.435 11.254 110.826 11.2799C111.065 11.2676 111.301 11.3369 111.496 11.4765C111.69 11.616 111.831 11.8176 111.896 12.0479C112.121 13.0404 112.282 14.0465 112.377 15.0599L112.679 17.093V13.8099C112.679 11.2343 112.543 8.66053 112.272 6.09923V6.02393C112.26 5.88665 112.283 5.74864 112.339 5.62242C112.394 5.49619 112.48 5.38574 112.588 5.30106C112.794 5.13943 113.05 5.05426 113.311 5.0601C113.625 5.061 113.933 5.14967 114.2 5.31612C114.682 5.69261 114.968 7.63535 115.043 11.1744H118.055C118.222 11.1632 118.39 11.1914 118.544 11.2568C118.699 11.3222 118.835 11.4229 118.944 11.5509C119.137 11.7781 119.243 12.0661 119.245 12.3642C119.247 12.672 119.14 12.9705 118.944 13.2075C118.835 13.3356 118.699 13.4363 118.544 13.5017C118.39 13.5671 118.222 13.5953 118.055 13.584H115.043C115.043 16.4756 114.832 20.4966 114.441 25.632C114.049 30.7675 113.853 34.7885 113.853 37.68C113.86 37.8453 113.826 38.0097 113.756 38.1592C113.685 38.3087 113.579 38.4388 113.447 38.5384C113.237 38.7113 112.98 38.8164 112.709 38.8396Z" fill="#C90000"/>
<path d="M131.85 34.156H131.639C130.324 33.8852 129.037 33.4867 127.799 32.9662C123.251 31.3699 120.605 29.1109 119.862 26.1892C119.798 25.8566 119.763 25.519 119.757 25.1802C119.864 23.4775 120.587 21.8718 121.79 20.6622C123.028 19.3218 124.447 18.1609 126.007 17.2135C127.566 16.2507 129.174 15.371 130.826 14.578C130.797 14.2725 130.797 13.9649 130.826 13.6593H118.055C117.895 13.6658 117.736 13.6352 117.589 13.5699C117.443 13.5046 117.314 13.4064 117.212 13.2828C117.015 13.0458 116.909 12.7473 116.911 12.4395C116.912 12.1414 117.019 11.8534 117.212 11.6262C117.314 11.5027 117.443 11.4045 117.589 11.3392C117.736 11.2738 117.895 11.2432 118.055 11.2497H136.278C136.445 11.2408 136.612 11.2701 136.766 11.3353C136.919 11.4005 137.057 11.5 137.166 11.6262C137.359 11.8534 137.466 12.1414 137.467 12.4395C137.469 12.7473 137.363 13.0458 137.166 13.2828C137.057 13.409 136.919 13.5086 136.766 13.5738C136.612 13.639 136.445 13.6683 136.278 13.6593H133.266C133.19 14.2015 133.145 14.7286 133.115 15.2406V15.572C132.874 18.6442 132.754 21.6562 132.754 24.6079C132.754 27.4242 132.874 30.2253 133.115 33.0566V33.1319C133.121 33.2865 133.087 33.4401 133.016 33.5775C132.945 33.7148 132.839 33.8312 132.709 33.915C132.451 34.0752 132.153 34.1588 131.85 34.156ZM130.645 31.4602C130.465 29.2163 130.374 26.9422 130.374 24.7887C130.374 22.2686 130.465 19.7586 130.645 17.2587C129.239 17.9394 127.881 18.7143 126.579 19.5779C125.307 20.397 124.173 21.4137 123.221 22.5899C122.629 23.2825 122.279 24.15 122.227 25.0597C122.227 26.5657 123.266 27.876 125.329 29.1109C126.991 30.1224 128.778 30.9122 130.645 31.4602Z" fill="#C90000"/>
<path d="M136.202 45.9931C136.006 45.9908 135.811 45.9498 135.63 45.8727C135.473 45.8047 135.304 45.7688 135.133 45.7672C134.858 45.7632 134.584 45.7987 134.32 45.8727H134.064C133.891 45.873 133.721 45.8353 133.565 45.7625C133.409 45.6896 133.271 45.5832 133.16 45.451C132.949 45.1961 132.827 44.8785 132.814 44.5474C132.79 44.4129 132.79 44.2752 132.814 44.1408C130.356 42.9419 127.714 42.168 124.998 41.8516C124.665 41.8223 124.354 41.6723 124.124 41.43C123.926 41.2226 123.814 40.9485 123.808 40.6619C123.821 40.461 123.877 40.2653 123.974 40.0884C124.07 39.9115 124.203 39.7578 124.365 39.6378C126.504 38.0114 128.627 36.3849 130.751 34.7283V33.147C130.745 33.0067 130.772 32.867 130.829 32.7389C130.887 32.6108 130.973 32.4979 131.082 32.409C131.293 32.2451 131.552 32.1552 131.82 32.153C132.12 32.1517 132.413 32.2526 132.648 32.4392C132.783 32.5404 132.895 32.6694 132.975 32.8175C133.056 32.9657 133.103 33.1294 133.115 33.2976V33.659C133.145 34.0399 133.145 34.4227 133.115 34.8036C133.12 35.2064 133.027 35.6043 132.844 35.9632C132.451 36.5232 131.936 36.9866 131.338 37.3186C130.525 37.8608 129.35 38.7342 127.799 39.9692C130.984 40.5688 134 41.8535 136.639 43.7341C136.803 43.8519 136.938 44.0051 137.035 44.1824C137.131 44.3597 137.187 44.5566 137.196 44.7582C137.197 44.9089 137.169 45.0583 137.112 45.1979C137.055 45.3374 136.971 45.4644 136.865 45.5715C136.705 45.7899 136.468 45.9403 136.202 45.9931Z" fill="#C90000"/>
<path d="M139.667 38.8397C139.365 38.8332 139.074 38.7273 138.838 38.5385C138.712 38.4388 138.612 38.3101 138.546 38.1632C138.481 38.0163 138.452 37.8556 138.462 37.6951C138.462 33.7042 138.341 29.6681 138.13 25.6471C137.918 21.5758 137.359 17.5301 136.459 13.554C136.275 13.5655 136.09 13.5394 135.917 13.4772C135.744 13.4151 135.585 13.3182 135.45 13.1925C135.337 13.0804 135.248 12.9464 135.188 12.7989C135.129 12.6513 135.1 12.4932 135.103 12.3341C135.117 12.1781 135.163 12.0265 135.238 11.8891C135.313 11.7517 135.416 11.6314 135.54 11.5359C135.764 11.3331 136.052 11.2157 136.353 11.2046C136.785 11.1784 137.217 11.1784 137.648 11.2046C137.87 11.2276 138.079 11.3224 138.242 11.4746C138.405 11.6268 138.514 11.8282 138.552 12.048C138.992 13.6753 139.349 15.324 139.621 16.9876C139.589 15.3358 139.469 13.6869 139.26 12.048C139.007 11.3662 138.605 10.749 138.085 10.2408C137.18 9.27746 136.569 8.07578 136.323 6.77699V6.00893C136.286 4.87648 136.661 3.76893 137.377 2.89151C138.093 2.00978 139.013 1.31686 140.058 0.873478C141.088 0.39459 142.194 0.0990049 143.326 0L144.275 0C147.966 0.139735 151.54 1.33105 154.576 3.43367C154.69 3.29921 154.83 3.18968 154.988 3.11194C155.146 3.0342 155.319 2.98992 155.495 2.98187C155.691 2.99256 155.881 3.05726 156.043 3.16886C156.205 3.28046 156.333 3.43463 156.413 3.61439C156.733 4.35059 157.182 5.02379 157.738 5.60231C157.924 5.8221 158.03 6.09796 158.04 6.38543C158.042 6.72125 157.924 7.04686 157.708 7.30408C157.618 7.42758 157.5 7.52853 157.364 7.59906C157.229 7.66959 157.078 7.7078 156.925 7.7107C156.7 7.70645 156.483 7.62693 156.308 7.4848C155.151 6.61955 153.949 5.81526 152.708 5.07521C151.426 4.29549 150.069 3.64474 148.657 3.13247C147.278 2.62644 145.82 2.36648 144.35 2.36442C143.534 2.36377 142.72 2.45981 141.926 2.65055C141.531 2.74719 141.148 2.88342 140.781 3.05717C140.182 3.29677 139.664 3.70403 139.29 4.23019C138.916 4.75636 138.702 5.37914 138.673 6.02399C138.651 6.2695 138.651 6.51642 138.673 6.76193C138.946 7.5462 139.424 8.24298 140.058 8.77996C140.719 9.47779 141.232 10.3027 141.564 11.2046H144.847C145.014 11.1957 145.181 11.2249 145.335 11.2902C145.489 11.3554 145.626 11.4549 145.736 11.5811C145.929 11.8082 146.035 12.0963 146.037 12.3944C146.039 12.7021 145.932 13.0007 145.736 13.2377C145.626 13.3639 145.489 13.4634 145.335 13.5287C145.181 13.5939 145.014 13.6232 144.847 13.6142H141.835C141.926 14.9395 141.986 16.2648 141.986 17.59C141.986 20.0298 141.785 23.4233 141.383 27.7706C141.067 31.0687 140.886 34.3668 140.841 37.6951C140.855 37.8583 140.828 38.0223 140.762 38.1723C140.697 38.3223 140.594 38.4533 140.465 38.5535C140.237 38.7328 139.957 38.8332 139.667 38.8397Z" fill="#C90000"/>
<path d="M165.826 13.554H144.832C144.672 13.5605 144.513 13.5299 144.366 13.4646C144.22 13.3992 144.091 13.301 143.989 13.1775C143.793 12.9404 143.686 12.6419 143.688 12.3341C143.689 12.036 143.796 11.748 143.989 11.5209C144.091 11.3973 144.22 11.2991 144.366 11.2338C144.513 11.1685 144.672 11.1379 144.832 11.1444H165.826C165.991 11.1343 166.156 11.1631 166.307 11.2285C166.459 11.2939 166.593 11.394 166.699 11.5209C166.892 11.748 166.999 12.036 167 12.3341C167.002 12.6419 166.896 12.9404 166.699 13.1775C166.593 13.3043 166.459 13.4044 166.307 13.4698C166.156 13.5352 165.991 13.564 165.826 13.554ZM156.79 34.0205C155.319 33.9949 153.87 33.6536 152.543 33.0196C151.215 32.3856 150.039 31.4738 149.094 30.3458C147.468 28.4049 146.582 25.9504 146.594 23.4182C146.594 19.6081 147.407 17.2888 148.838 16.4455C149 16.3759 149.174 16.34 149.35 16.34C149.526 16.3366 149.7 16.3711 149.862 16.4413C150.023 16.5114 150.167 16.6156 150.284 16.7467C150.514 16.9857 150.643 17.3037 150.645 17.6352C150.634 17.8199 150.574 17.9983 150.47 18.1518C150.367 18.3054 150.225 18.4286 150.058 18.5087C149.755 18.8802 149.562 19.3287 149.501 19.8038C149.166 21.0156 148.994 22.2665 148.989 23.5237C148.971 24.876 149.296 26.2108 149.933 27.4037C150.57 28.5965 151.499 29.6087 152.633 30.3458C153.98 31.2151 155.548 31.6803 157.151 31.6862C158.609 31.7128 160.027 31.2098 161.142 30.2705C161.313 30.1398 161.454 29.9741 161.555 29.7844C161.656 29.5948 161.716 29.3857 161.729 29.1711C161.722 28.9488 161.666 28.7309 161.564 28.533C161.463 28.3351 161.318 28.1622 161.142 28.0266C160.048 27.2482 158.715 26.8803 157.377 26.9874H156.052C155.744 27.0515 155.432 27.0918 155.118 27.1079C154.975 27.1188 154.832 27.0943 154.7 27.0365C154.569 26.9787 154.454 26.8894 154.365 26.7766C154.206 26.564 154.121 26.3045 154.124 26.0387C154.122 25.7265 154.217 25.4212 154.395 25.1652C154.503 25.0285 154.64 24.9182 154.797 24.8425C154.953 24.7668 155.125 24.7278 155.299 24.7285L156.624 24.5929C157.471 24.5472 158.312 24.4313 159.139 24.2465C159.921 24.081 160.632 23.6756 161.172 23.0869C161.494 22.6903 161.675 22.1973 161.684 21.6863C161.67 20.8904 161.412 20.1179 160.946 19.4725C160.013 17.6804 159.079 16.7768 158.145 16.7768C157.777 16.7947 157.431 16.957 157.181 17.2286C156.646 17.8198 156.278 18.542 156.112 19.3219C155.905 20.1051 155.779 20.9075 155.736 21.7165C155.735 21.8859 155.695 22.0528 155.62 22.2044C155.544 22.3559 155.434 22.4878 155.299 22.5899C155.061 22.7874 154.764 22.8988 154.456 22.9062C154.204 22.9273 153.955 22.8493 153.761 22.6888C153.567 22.5284 153.443 22.2983 153.416 22.0478C153.257 21.1558 152.919 20.3054 152.422 19.5478C152.286 19.3639 152.208 19.1438 152.197 18.9153C152.194 18.7614 152.231 18.6093 152.301 18.4727C152.372 18.3361 152.476 18.2191 152.603 18.1322C152.858 17.9344 153.169 17.8235 153.492 17.8159C153.688 17.8141 153.88 17.8662 154.049 17.9665C154.394 16.7258 155.182 15.6544 156.263 14.9545C156.821 14.5953 157.467 14.3972 158.13 14.3823C159.802 14.3823 161.338 15.4967 162.738 17.7406C163.572 18.9217 164.048 20.3175 164.109 21.7616C164.102 22.5805 163.873 23.3821 163.446 24.0809C163.067 24.6919 162.551 25.2072 161.94 25.5869C162.622 25.9113 163.197 26.4239 163.597 27.0643C163.998 27.7047 164.207 28.4461 164.199 29.2013C164.212 29.6816 164.123 30.1591 163.939 30.6029C163.755 31.0466 163.479 31.4465 163.13 31.7765C162.383 32.4333 161.52 32.9441 160.585 33.2825C159.402 33.7666 158.143 34.0369 156.865 34.0807L156.79 34.0205Z" fill="#C90000"/>
<path d="M26.43 12.048V35.0747H21.912L8.16226 27.4242V12.048H26.43ZM21.912 29.9392V16.566H12.6501V24.8339L21.912 29.9392Z" fill="white"/>
<path d="M34.6378 35.0747H30.1198V12.048H34.6378V35.0747Z" fill="white"/>
</g>
<defs>
<clipPath id="clip0_1_621">
<rect width="167" height="45.9931" fill="white"/>
</clipPath>
</defs>
</svg>
