<svg width="128" height="38" viewBox="0 0 128 38" fill="none" xmlns="http://www.w3.org/2000/svg">
<path d="M24.6663 23.9713L31.6037 26.1709C30.5401 30.0385 28.7675 32.9149 26.2858 34.8003C23.8203 36.6696 20.686 37.6043 16.8829 37.6043C12.1774 37.6043 8.30987 36.0009 5.28031 32.7941C2.25074 29.5711 0.735962 25.1718 0.735962 19.5961C0.735962 13.6982 2.2588 9.12158 5.30448 5.86641C8.35016 2.59512 12.3547 0.959483 17.318 0.959483C21.6528 0.959483 25.1739 2.2406 27.8812 4.80284C29.4926 6.31762 30.7012 8.4931 31.507 11.3293L24.4246 13.0213C24.0056 11.1843 23.1273 9.73394 21.7898 8.67037C20.4684 7.6068 18.8569 7.07501 16.9554 7.07501C14.3287 7.07501 12.1935 8.01772 10.5498 9.90314C8.92223 11.7886 8.10843 14.8423 8.10843 19.0643C8.10843 23.5442 8.91417 26.7349 10.5256 28.6365C12.1371 30.538 14.232 31.4888 16.8104 31.4888C18.7119 31.4888 20.3475 30.8845 21.7173 29.6759C23.087 28.4673 24.07 26.5657 24.6663 23.9713ZM33.8314 1.56378H47.9962C50.8001 1.56378 52.887 1.68464 54.2567 1.92636C55.6426 2.15197 56.8754 2.63541 57.9551 3.37669C59.0509 4.11796 59.9613 5.10902 60.6865 6.34985C61.4117 7.57457 61.7742 8.95237 61.7742 10.4833C61.7742 12.1431 61.323 13.6659 60.4206 15.0518C59.5343 16.4376 58.3257 17.477 56.7948 18.17C58.9542 18.7985 60.614 19.8701 61.7742 21.3849C62.9345 22.8996 63.5146 24.6803 63.5146 26.7269C63.5146 28.3384 63.1359 29.9095 62.3785 31.4404C61.6373 32.9552 60.614 34.1719 59.3087 35.0904C58.0195 35.9928 56.4242 36.5488 54.5226 36.7583C53.3301 36.8872 50.4537 36.9678 45.8932 37H33.8314V1.56378ZM40.9863 7.46176V15.6561H45.6757C48.4635 15.6561 50.1958 15.6158 50.8726 15.5352C52.0974 15.3902 53.0562 14.9712 53.7491 14.2783C54.4582 13.5692 54.8127 12.6426 54.8127 11.4985C54.8127 10.4027 54.5065 9.51639 53.8942 8.83957C53.2979 8.14664 52.4035 7.72766 51.2111 7.58262C50.502 7.50205 48.4635 7.46176 45.0955 7.46176H40.9863ZM40.9863 21.5541V31.0295H47.6094C50.1878 31.0295 51.8234 30.957 52.5163 30.812C53.5799 30.6186 54.4421 30.1513 55.1028 29.41C55.7796 28.6526 56.118 27.6454 56.118 26.3885C56.118 25.3249 55.8601 24.4225 55.3445 23.6812C54.8288 22.9399 54.0795 22.4001 53.0965 22.0617C52.1296 21.7233 50.0186 21.5541 46.7634 21.5541H40.9863ZM65.5973 1.56378H78.6744C81.6233 1.56378 83.8713 1.78939 85.4184 2.2406C87.4972 2.85296 89.2778 3.9407 90.7604 5.50383C92.2429 7.06695 93.371 8.9846 94.1445 11.2568C94.918 13.5128 95.3047 16.3007 95.3047 19.6203C95.3047 22.5371 94.9421 25.051 94.217 27.162C93.3307 29.7403 92.0657 31.8272 90.422 33.4225C89.1811 34.6311 87.5052 35.5738 85.3942 36.2507C83.8149 36.7502 81.7039 37 79.0611 37H65.5973V1.56378ZM72.7522 7.55845V31.0295H78.0942C80.0925 31.0295 81.5347 30.9167 82.421 30.6911C83.5813 30.401 84.5401 29.9095 85.2975 29.2166C86.071 28.5237 86.6995 27.3876 87.1829 25.8083C87.6664 24.213 87.9081 22.0456 87.9081 19.3061C87.9081 16.5666 87.6664 14.4636 87.1829 12.9972C86.6995 11.5307 86.0227 10.3866 85.1525 9.56473C84.2823 8.74288 83.1784 8.18692 81.8409 7.89686C80.8418 7.67125 78.8839 7.55845 75.9671 7.55845H72.7522ZM120.109 23.9713L127.046 26.1709C125.983 30.0385 124.21 32.9149 121.729 34.8003C119.263 36.6696 116.129 37.6043 112.326 37.6043C107.62 37.6043 103.753 36.0009 100.723 32.7941C97.6936 29.5711 96.1788 25.1718 96.1788 19.5961C96.1788 13.6982 97.7016 9.12158 100.747 5.86641C103.793 2.59512 107.797 0.959483 112.761 0.959483C117.096 0.959483 120.617 2.2406 123.324 4.80284C124.935 6.31762 126.144 8.4931 126.95 11.3293L119.867 13.0213C119.448 11.1843 118.57 9.73394 117.233 8.67037C115.911 7.6068 114.3 7.07501 112.398 7.07501C109.772 7.07501 107.636 8.01772 105.993 9.90314C104.365 11.7886 103.551 14.8423 103.551 19.0643C103.551 23.5442 104.357 26.7349 105.968 28.6365C107.58 30.538 109.675 31.4888 112.253 31.4888C114.155 31.4888 115.79 30.8845 117.16 29.6759C118.53 28.4673 119.513 26.5657 120.109 23.9713Z" fill="#470C56"/>
</svg>
