<svg width="146" height="50" viewBox="0 0 146 50" fill="none" xmlns="http://www.w3.org/2000/svg">
<g clip-path="url(#clip0_1_637)">
<path d="M19.8853 28.3781C19.8764 29.5488 18.7322 30.6872 17.5232 30.7255C16.317 30.7638 15.1994 29.6403 15.1817 28.381C15.164 27.0393 16.2639 25.9658 17.6146 26.0042C18.9151 26.0425 19.8941 27.0629 19.8853 28.381V28.3781Z" fill="#0071BC"/>
<path d="M33.4418 25.9983C34.7511 25.9659 35.7715 26.9243 35.8334 28.2395C35.8924 29.5371 34.76 30.5987 33.2678 30.64C32.1207 30.6724 31.1151 29.5931 31.1239 28.3398C31.1327 27.054 32.1472 26.0307 33.4418 25.9983Z" fill="#0071BC"/>
<rect x="-121" y="-36" width="404" height="120" fill="white"/>
<path d="M24.5826 9.65809C24.5826 8.7852 24.5649 8.41952 24.5973 7.58791C24.6327 6.5941 24.5826 5.30835 23.6065 4.58584C22.4446 3.72769 22.5036 1.97305 23.4531 0.884871C24.3821 -0.179711 26.3667 -0.374344 27.5463 0.805249C28.5372 1.79611 28.5962 3.50947 27.5463 4.34403C25.8536 5.7212 26.3667 7.58791 26.3667 9.6522C27.9916 10.4396 29.1447 11.7165 30.7902 11.7165C31.9698 11.7165 32.5154 11.7224 33.1494 11.7165C40.1178 11.6516 44.6888 14.9338 47.4048 21.3243C47.5965 21.7725 48.0123 22.1942 48.431 22.4626C51.7073 24.5593 51.8961 30.8141 48.7731 33.1231C48.2718 33.4918 47.7822 34.1199 47.6525 34.7068C47.1128 37.1927 45.6059 39.0388 43.8188 40.6608C41.3033 42.9462 38.2275 44.3027 35.0485 45.3614C30.4393 46.8949 25.7858 48.2898 21.147 49.7348C20.7843 49.8468 20.398 49.8911 19.8524 50.0002V44.9869C19.1801 44.9574 18.6551 44.9161 18.1273 44.9132C10.8669 44.8631 5.93028 41.4304 3.34697 34.6979C3.10515 34.0668 2.63627 33.4416 2.1084 33.014C-0.937901 30.5428 -0.634156 24.5741 2.65101 22.4567C3.09631 22.1706 3.48557 21.6516 3.68905 21.1562C6.07183 15.329 11.1234 11.8462 17.4048 11.7932C18.8291 11.7814 18.9884 11.7165 20.7578 11.7165C21.9374 11.7165 23.4207 10.071 24.5767 9.65809H24.5826ZM25.5292 19.4959V19.49C22.7778 19.49 20.0264 19.4605 17.275 19.4959C12.4151 19.5608 8.61975 23.2028 8.41037 27.9595C8.1951 32.784 11.6867 36.9332 16.6115 37.1249C22.5861 37.3579 28.5785 37.2842 34.562 37.1426C38.0034 37.063 41.2945 34.2615 42.2912 31.0353C44.0134 25.4587 39.9114 19.6669 34.0783 19.5106C31.2326 19.434 28.3809 19.4989 25.5322 19.4989L25.5292 19.4959Z" fill="#2563EB"/>
<path d="M78.4896 15.0339V20.3834H61.4917L64.5174 17.3577V37.9652H58.1888V15.0339H78.4896ZM61.2764 24.4205H77.9087V29.77H61.2764V24.4205Z" fill="#1F2937"/>
<path d="M84.4529 18.794C83.3707 18.794 82.4948 18.5227 81.8225 17.983C81.1501 17.4434 80.8139 16.7032 80.8139 15.7654C80.8139 14.8276 81.1501 14.114 81.8225 13.5655C82.4948 13.014 83.3707 12.7397 84.4529 12.7397C85.5352 12.7397 86.4642 13.014 87.1277 13.5655C87.7912 14.1169 88.1215 14.8483 88.1215 15.7654C88.1215 16.6825 87.7912 17.4434 87.1277 17.983C86.4642 18.5227 85.5736 18.794 84.4529 18.794ZM81.3329 20.2302L84.4824 20.8406L87.5995 20.2302V37.9624H81.3329V20.2302Z" fill="#1F2937"/>
<path d="M90.2006 20.5073H96.4671L97.5996 27.4787V37.9653H91.3625V26.5321L90.2006 20.5103V20.5073ZM104.019 19.9883C105.692 19.9883 107.116 20.3245 108.298 20.9968C109.481 21.6692 110.383 22.6158 111.003 23.8397C111.625 25.0635 111.935 26.5114 111.935 28.1806V37.9653H105.697V29.0977C105.697 27.7942 105.367 26.7945 104.704 26.1015C104.04 25.4085 103.088 25.0635 101.846 25.0635C100.991 25.0635 100.242 25.2463 99.599 25.6149C98.9561 25.9806 98.4636 26.5026 98.1156 27.175C97.7677 27.8473 97.5966 28.6435 97.5966 29.5607L95.6709 28.5521C95.9157 26.6972 96.4347 25.1343 97.2309 23.8603C98.0272 22.5863 99.0033 21.625 100.165 20.9703C101.327 20.3186 102.61 19.9912 104.017 19.9912L104.019 19.9883Z" fill="#1F2937"/>
<path d="M118.266 18.794C117.184 18.794 116.308 18.5227 115.636 17.983C114.964 17.4434 114.627 16.7032 114.627 15.7654C114.627 14.8276 114.964 14.114 115.636 13.5655C116.308 13.014 117.184 12.7397 118.266 12.7397C119.349 12.7397 120.278 13.014 120.941 13.5655C121.605 14.1169 121.935 14.8483 121.935 15.7654C121.935 16.6825 121.605 17.4434 120.941 17.983C120.278 18.5227 119.387 18.794 118.266 18.794ZM115.146 20.2302L118.296 20.8406L121.413 20.2302V37.9624H115.146V20.2302Z" fill="#1F2937"/>
<path d="M122.76 37.9624L130.861 28.1776L130.832 30.0119L123.217 20.5044H130.156L135.078 26.5262H133.244L138.166 20.5044H145.013L137.125 30.0738L136.818 27.5967L145.5 37.9624H138.408L133.058 31.51H135.013L129.723 37.9624H122.751H122.76Z" fill="#1F2937"/>
<circle cx="17" cy="28" r="3" fill="#2563EB"/>
<circle cx="34" cy="28" r="3" fill="#2563EB"/>
</g>
<defs>
<clipPath id="clip0_1_637">
<rect width="145.506" height="50" fill="white"/>
</clipPath>
</defs>
</svg>
