<svg width="294" height="23" viewBox="0 0 294 23" fill="none" xmlns="http://www.w3.org/2000/svg">
<path d="M7.47102 23H0.78928V0.551991H8.91928L22.3486 17.5032L35.745 0.551991H43.7433V23H37.0616V8.4845L25.6401 23H18.8925L7.47102 8.4845V23ZM86.371 23L83.672 18.6552H67.0829L64.3509 23H56.3197L70.9668 0.551991H79.8539L94.4681 23H86.371ZM69.9794 14.0142H80.7426L75.3774 5.39049L69.9794 14.0142ZM114.232 6.2792H100.901V0.551991H134.211V6.2792H120.913V23H114.232V6.2792ZM177.814 23H147.861V0.551991H177.814V5.78547H154.543V9.50486H177.189V13.8167H154.543V17.7665H177.814V23ZM198.906 23H192.225V0.551991H214.705C220.235 0.551991 224.086 2.49397 224.086 8.38575C224.086 13.323 221.157 15.6929 216.187 16.0879L214.738 16.1208L216.516 17.207L223.889 23H215.495L207.431 16.4828H198.906V23ZM198.906 6.2792V11.4798H214.047C216.252 11.4798 217.174 10.7556 217.174 8.91239C217.174 6.90458 216.252 6.2792 214.047 6.2792H198.906ZM244.877 23H238.195V0.551991H245.831L265.119 15.7258V0.551991H271.801V23H264.329L244.877 7.56288V23ZM293.226 23H286.544V0.551991H293.226V23Z" fill="#5C8C1E"/>
</svg>
