<svg width="88" height="33" viewBox="0 0 88 33" fill="none" xmlns="http://www.w3.org/2000/svg">
<path d="M9.81709 32.798C6.33109 32.798 2.67709 31.874 0.325087 30.32L0.619086 23.432H2.80309L4.94509 31.37L2.34109 30.236L1.87909 28.682C4.65109 30.614 6.41509 31.118 9.27109 31.118C13.5551 31.118 16.0751 29.102 16.0751 25.574C16.0751 22.676 14.8151 21.122 11.0351 19.484L9.06109 18.644C3.68509 16.25 0.829086 13.52 0.829086 8.732C0.829086 3.188 5.32309 0.121997 11.7071 0.121997C14.9831 0.121997 17.7131 1.004 19.8971 2.474L19.6031 9.068H17.3771L15.3611 1.466L18.1331 2.642L18.4271 4.322C16.0751 2.474 14.6891 1.802 12.3371 1.802C8.59909 1.802 6.03709 3.65 6.03709 7.01C6.03709 9.992 7.75909 11.63 10.8671 12.974L12.9251 13.898C19.2671 16.67 21.4511 19.106 21.4511 23.684C21.4511 29.186 17.2091 32.798 9.81709 32.798ZM39.0337 32.798C29.7937 32.798 22.7797 27.38 22.7797 16.712C22.7797 5.876 30.0037 0.121997 39.0757 0.121997C42.8137 0.121997 45.3757 0.961999 48.1057 2.516L48.0217 9.824H45.7537L43.5277 1.466L46.5517 2.474V3.86C44.3677 2.348 42.5197 1.676 40.0417 1.676C33.7837 1.676 29.0797 6.506 29.0797 16.502C29.0797 26.54 33.7837 31.244 40.0837 31.244C42.4777 31.244 44.4937 30.572 46.8037 28.892V30.404L43.8637 31.37L46.0477 23.096H48.3157L48.3997 30.362C45.7537 31.958 42.8137 32.798 39.0337 32.798ZM48.9939 32V30.656L54.0339 30.026H54.9579L59.9979 30.656V32H48.9939ZM49.4559 2.306V0.92H55.7979V2.852H55.2519L49.4559 2.306ZM53.4459 32L53.5719 0.92H55.1259L55.3779 16.88V32H53.4459ZM65.7939 32L54.3699 2.684H54.0759V0.92H59.7459L69.3219 25.784H68.2299L68.5239 25.07L77.7639 0.92H79.9479V2.684H78.8559L78.3519 4.028L67.7259 32H65.7939ZM73.9419 32V30.656L80.3259 30.026H81.4179L87.9279 30.656V32H73.9419ZM77.7639 32C77.9319 27.17 77.8479 22.298 77.9319 18.308L78.0999 0.92H83.9799C83.8119 5.708 83.8119 10.58 83.8119 15.494V17.468C83.8119 22.382 83.8119 27.296 83.9799 32H77.7639ZM80.8299 2.852V0.92H87.8019V2.306L81.4599 2.852H80.8299Z" fill="#0970AA"/>
</svg>
