<svg width="96" height="96" viewBox="0 0 96 96" fill="none" xmlns="http://www.w3.org/2000/svg">
<path d="M93.0773 54.28C82.992 38.8373 84.0639 23.008 79.2026 15.5653C74.3413 8.12265 59.8533 -4.70935 25.6213 17.6507C-8.61072 40.0107 0.0959482 64.3173 5.44528 72.5013C30.4799 110.827 110.941 81.6293 93.0773 54.28Z" fill="#EFEFEF"/>
<path d="M79.5039 87.5227C77.2986 87.5227 75.5039 85.728 75.5039 83.5227C75.5039 81.3173 77.2986 79.5227 79.5039 79.5227C81.7092 79.5227 83.5039 81.3173 83.5039 83.5227C83.5039 85.728 81.7092 87.5227 79.5039 87.5227ZM79.5039 82.1893C78.7679 82.1893 78.1706 82.7867 78.1706 83.5227C78.1706 84.2587 78.7679 84.856 79.5039 84.856C80.2399 84.856 80.8372 84.2587 80.8372 83.5227C80.8372 82.7867 80.2399 82.1893 79.5039 82.1893Z" fill="#A4AFC1"/>
<path d="M22.6135 23.0913L26.3848 19.3201L28.2704 21.2057L24.4991 24.9769L22.6135 23.0913Z" fill="#A4AFC1"/>
<path d="M11.7708 33.9295L15.542 30.1583L17.4276 32.0439L13.6564 35.8151L11.7708 33.9295Z" fill="#A4AFC1"/>
<path d="M11.7759 20.7292L13.6615 18.8436L17.4327 22.6149L15.5471 24.5005L11.7759 20.7292Z" fill="#A4AFC1"/>
<path d="M69.9999 32.6667H63.3333V26L71.3333 18V24.6667H77.9999L69.9999 32.6667Z" fill="#00DD91"/>
<path d="M67.3333 53.3333C67.3333 56.632 66.6853 59.776 65.512 62.6533C64.768 64.4773 63.8107 66.192 62.672 67.768C58.192 73.968 50.9013 78 42.6667 78C29.0427 78 18 66.9573 18 53.3333C18 39.7093 29.0427 28.6667 42.6667 28.6667C56.2907 28.6667 67.3333 39.7093 67.3333 53.3333Z" fill="#00DD91"/>
<path d="M42.6666 68.6667C51.135 68.6667 57.9999 61.8017 57.9999 53.3333C57.9999 44.865 51.135 38 42.6666 38C34.1982 38 27.3333 44.865 27.3333 53.3333C27.3333 61.8017 34.1982 68.6667 42.6666 68.6667Z" fill="#F3F3F1"/>
<path d="M42.6667 59.3333C45.9805 59.3333 48.6667 56.6471 48.6667 53.3333C48.6667 50.0196 45.9805 47.3333 42.6667 47.3333C39.353 47.3333 36.6667 50.0196 36.6667 53.3333C36.6667 56.6471 39.353 59.3333 42.6667 59.3333Z" fill="#00DD91"/>
<path d="M23.3333 53.3333C23.3333 40.6107 32.9653 30.1467 45.3333 28.816C44.456 28.7227 43.568 28.6667 42.6667 28.6667C29.0427 28.6667 18 39.7093 18 53.3333C18 66.9573 29.0427 78 42.6667 78C43.568 78 44.456 77.944 45.3333 77.8507C32.9653 76.52 23.3333 66.056 23.3333 53.3333Z" fill="#00B871"/>
<path d="M32.6666 53.3333C32.6666 45.776 38.1386 39.512 45.3333 38.248C44.4666 38.096 43.5786 38 42.6666 38C34.1973 38 27.3333 44.864 27.3333 53.3333C27.3333 61.8027 34.1973 68.6667 42.6666 68.6667C43.5786 68.6667 44.4666 68.5733 45.3333 68.4187C38.1386 67.1547 32.6666 60.8907 32.6666 53.3333Z" fill="#D5DBE1"/>
<path d="M42.0001 53.3333C42.0001 50.984 43.3654 48.968 45.3334 47.984C44.5281 47.5813 43.6294 47.3333 42.6667 47.3333C39.3521 47.3333 36.6667 50.0187 36.6667 53.3333C36.6667 56.648 39.3521 59.3333 42.6667 59.3333C43.6294 59.3333 44.5281 59.0853 45.3334 58.6827C43.3654 57.6987 42.0001 55.6827 42.0001 53.3333Z" fill="#00B871"/>
<path d="M71.3333 18L63.3333 26V32.6667L71.3333 24.6667V18Z" fill="#00B871"/>
<path d="M69.9999 34.6667H63.3333C62.2293 34.6667 61.3333 33.7707 61.3333 32.6667V26C61.3333 25.4693 61.5439 24.96 61.9199 24.5867L69.9199 16.5867C70.4933 16.0133 71.3546 15.8427 72.0986 16.152C72.8453 16.4613 73.3333 17.192 73.3333 18V22.6667H77.9999C78.8079 22.6667 79.5386 23.1547 79.8479 23.9013C80.1573 24.648 79.9866 25.5093 79.4133 26.08L71.4133 34.08C71.0399 34.456 70.5306 34.6667 69.9999 34.6667ZM65.3333 30.6667H69.1706L73.1706 26.6667H71.3333C70.2293 26.6667 69.3333 25.7707 69.3333 24.6667V22.8293L65.3333 26.8293V30.6667Z" fill="black"/>
<path d="M42.6667 80C27.9627 80 16 68.0373 16 53.3333C16 38.6293 27.9627 26.6667 42.6667 26.6667C57.3707 26.6667 69.3333 38.6293 69.3333 53.3333C69.3333 55.9147 68.9653 58.4667 68.2373 60.92L64.4027 59.784C65.0213 57.6987 65.3333 55.528 65.3333 53.3333C65.3333 40.8347 55.1653 30.6667 42.6667 30.6667C30.168 30.6667 20 40.8347 20 53.3333C20 65.832 30.168 76 42.6667 76C51.512 76 59.608 70.8 63.288 62.7547L66.9253 64.4187C62.5947 73.8853 53.072 80 42.6667 80Z" fill="black"/>
<path d="M42.6666 70.6667C33.1093 70.6667 25.3333 62.8907 25.3333 53.3333C25.3333 43.776 33.1093 36 42.6666 36C52.2239 36 59.9999 43.776 59.9999 53.3333C59.9999 62.8907 52.2239 70.6667 42.6666 70.6667ZM42.6666 40C35.3146 40 29.3333 45.9813 29.3333 53.3333C29.3333 60.6853 35.3146 66.6667 42.6666 66.6667C50.0186 66.6667 55.9999 60.6853 55.9999 53.3333C55.9999 45.9813 50.0186 40 42.6666 40Z" fill="black"/>
<path d="M42.6667 61.3333C38.2561 61.3333 34.6667 57.744 34.6667 53.3333C34.6667 48.9227 38.2561 45.3333 42.6667 45.3333C47.0774 45.3333 50.6667 48.9227 50.6667 53.3333C50.6667 57.744 47.0774 61.3333 42.6667 61.3333ZM42.6667 49.3333C40.4614 49.3333 38.6667 51.128 38.6667 53.3333C38.6667 55.5387 40.4614 57.3333 42.6667 57.3333C44.8721 57.3333 46.6667 55.5387 46.6667 53.3333C46.6667 51.128 44.8721 49.3333 42.6667 49.3333Z" fill="black"/>
<path d="M42.6666 55.3333C42.1546 55.3333 41.6426 55.1387 41.2532 54.7467C40.4719 53.9653 40.4719 52.6987 41.2532 51.9173L61.2532 31.9173C62.0346 31.136 63.3012 31.136 64.0826 31.9173C64.8639 32.6987 64.8639 33.9653 64.0826 34.7467L44.0826 54.7467C43.6906 55.1387 43.1786 55.3333 42.6666 55.3333Z" fill="black"/>
</svg>
