<svg width="52" height="52" viewBox="0 0 52 52" fill="none" xmlns="http://www.w3.org/2000/svg">
<g clip-path="url(#clip0_1_442)">
<path d="M33.9781 35.4696L26.4056 31.0973C26.2821 31.0259 26.142 30.9884 25.9994 30.9884C25.8568 30.9884 25.7166 31.0259 25.5931 31.0973L18.0206 35.4696C17.8971 35.5408 17.7945 35.6432 17.7232 35.7667C17.6519 35.8901 17.6144 36.0301 17.6144 36.1727V44.8946C17.6144 45.0373 17.6519 45.1775 17.7232 45.3011C17.7946 45.4247 17.8971 45.5273 18.0206 45.5988L25.5931 49.97C25.7165 50.0416 25.8567 50.0794 25.9994 50.0794C26.1421 50.0794 26.2822 50.0416 26.4056 49.97L33.9781 45.5988C34.1016 45.5273 34.2042 45.4247 34.2755 45.3011C34.3468 45.1775 34.3844 45.0373 34.3844 44.8946V36.1727C34.3844 36.0301 34.3468 35.8901 34.2755 35.7667C34.2042 35.6432 34.1016 35.5408 33.9781 35.4696ZM25.9994 32.7396L31.9469 36.1727L25.9994 39.6068L20.0519 36.1727L25.9994 32.7396ZM19.2394 37.5799L25.1869 41.0141V47.8597L19.2394 44.4255V37.5799ZM32.7594 44.4255L26.8119 47.8597V41.0141L32.7594 37.5799V44.4255Z" fill="#00DD91"/>
<path d="M14.5813 18.8716C14.7236 18.8721 14.8635 18.8347 14.9865 18.7632L18.4369 16.7721L25.5945 20.9082C25.7179 20.9799 25.8581 21.0176 26.0008 21.0176C26.1434 21.0176 26.2836 20.9799 26.407 20.9082L33.5646 16.7764L37.015 18.7676C37.138 18.8391 37.2779 18.8765 37.4202 18.8759C37.5993 18.8763 37.7735 18.8176 37.9158 18.7087C38.0581 18.5999 38.1604 18.4471 38.2069 18.2741C38.2533 18.1012 38.2413 17.9177 38.1727 17.7522C38.1041 17.5867 37.9827 17.4486 37.8275 17.3592L34.3858 15.3691V7.10547C34.3857 6.96278 34.3482 6.82261 34.2769 6.69901C34.2056 6.57542 34.103 6.47275 33.9795 6.40131L26.407 2.03006C26.2835 1.95875 26.1434 1.9212 26.0008 1.9212C25.8581 1.9212 25.718 1.95875 25.5945 2.03006L18.022 6.40131C17.8985 6.47275 17.7959 6.57542 17.7246 6.69901C17.6533 6.82261 17.6158 6.96278 17.6158 7.10547V15.3691L14.174 17.356C14.0188 17.4453 13.8974 17.5835 13.8288 17.7489C13.7602 17.9144 13.7482 18.0979 13.7947 18.2709C13.8411 18.4439 13.9434 18.5967 14.0857 18.7055C14.228 18.8143 14.4022 18.872 14.5813 18.8716ZM30.398 13.0638C30.3055 13.0105 30.2035 12.9758 30.0976 12.9619C29.9918 12.948 29.8842 12.9551 29.7811 12.9828C29.678 13.0105 29.5813 13.0582 29.4967 13.1232C29.412 13.1882 29.3409 13.2693 29.2876 13.3617C29.2342 13.4542 29.1996 13.5563 29.1857 13.6621C29.1718 13.768 29.1789 13.8755 29.2066 13.9786C29.2342 14.0817 29.2819 14.1784 29.347 14.2631C29.412 14.3478 29.493 14.4188 29.5855 14.4721L31.9428 15.8339L26.8133 18.7925V11.9458L31.0253 9.51481L32.7586 8.51164V14.4299L30.398 13.0638ZM26.0008 3.67131L31.9483 7.10547L26.0008 10.5386L20.0533 7.10547L26.0008 3.67131ZM19.2408 8.51164L20.9741 9.51481L25.1861 11.9458V18.7925L20.0598 15.8328L22.4171 14.4711C22.5096 14.4177 22.5906 14.3467 22.6556 14.262C22.7207 14.1773 22.7684 14.0807 22.796 13.9776C22.8237 13.8744 22.8308 13.7669 22.8169 13.661C22.803 13.5552 22.7684 13.4531 22.715 13.3606C22.6617 13.2682 22.5906 13.1871 22.5059 13.1221C22.4213 13.0571 22.3246 13.0094 22.2215 12.9817C22.1184 12.954 22.0108 12.947 21.905 12.9609C21.7991 12.9748 21.6971 13.0094 21.6046 13.0627L19.2408 14.4299V8.51164Z" fill="#00DD91"/>
<path d="M19.0461 33.3136C19.1691 33.3851 19.309 33.4225 19.4513 33.4219C19.6304 33.4224 19.8046 33.3636 19.9469 33.2548C20.0892 33.146 20.1915 32.9932 20.238 32.8202C20.2844 32.6472 20.2724 32.4637 20.2038 32.2982C20.1352 32.1328 20.0138 31.9946 19.8586 31.9053L16.77 30.1243V21.8834C16.77 21.7407 16.7325 21.6005 16.6611 21.4769C16.5898 21.3533 16.4873 21.2506 16.3638 21.1792L8.79127 16.8069C8.66775 16.7355 8.52764 16.698 8.38502 16.698C8.24239 16.698 8.10228 16.7355 7.97877 16.8069L0.406267 21.1738C0.281951 21.2457 0.17888 21.3492 0.107527 21.4738C0.0361741 21.5985 -0.000918692 21.7397 1.72845e-05 21.8834V30.6053C6.14063e-06 30.7478 0.0375492 30.8879 0.108867 31.0113C0.180185 31.1347 0.28276 31.2372 0.406267 31.3084L7.97877 35.6807C8.10217 35.7523 8.24233 35.79 8.38502 35.79C8.52771 35.79 8.66786 35.7523 8.79127 35.6807L15.9629 31.5402L19.0461 33.3136ZM8.38502 18.4438L14.3325 21.8779L8.38502 25.311L2.43752 21.8834L8.38502 18.4438ZM1.62502 23.2852L3.35835 24.2873L7.57252 26.7194V33.5639L1.62502 30.1297V23.2852ZM9.19752 33.5639V26.7194L13.4095 24.2873L15.1429 23.2852V29.1861L12.3706 27.586C12.1838 27.4783 11.9619 27.4491 11.7537 27.505C11.5454 27.5609 11.3679 27.6972 11.2602 27.8839C11.1524 28.0707 11.1233 28.2926 11.1792 28.5008C11.235 28.7091 11.3713 28.8866 11.5581 28.9944L14.3358 30.5977L9.19752 33.5639Z" fill="#00DD91"/>
<path d="M51.5941 21.1738L44.0216 16.8015C43.898 16.7302 43.7579 16.6926 43.6153 16.6926C43.4727 16.6926 43.3326 16.7302 43.2091 16.8015L35.642 21.1738C35.5185 21.2453 35.4159 21.3479 35.3446 21.4715C35.2733 21.5951 35.2358 21.7353 35.2357 21.878V30.1243L32.1471 31.9075C31.9919 31.9968 31.8706 32.135 31.8019 32.3005C31.7333 32.4659 31.7213 32.6494 31.7678 32.8224C31.8143 32.9954 31.9166 33.1482 32.0588 33.257C32.2011 33.3658 32.3754 33.4246 32.5545 33.4242C32.6968 33.4247 32.8366 33.3873 32.9596 33.3158L36.0428 31.537L43.2145 35.6775C43.3379 35.7491 43.478 35.7868 43.6207 35.7868C43.7634 35.7868 43.9036 35.7491 44.027 35.6775L51.5995 31.3051C51.7223 31.2331 51.824 31.13 51.8944 31.0062C51.9647 30.8824 52.0013 30.7423 52.0003 30.5999V21.8834C52.0013 21.7398 51.9642 21.5985 51.8928 21.4739C51.8215 21.3492 51.7184 21.2457 51.5941 21.1738ZM43.6153 18.4438L49.5628 21.878L43.6153 25.3111L37.6678 21.8834L43.6153 18.4438ZM40.7336 27.8829C40.6804 27.7905 40.6094 27.7095 40.5248 27.6446C40.4401 27.5797 40.3436 27.5321 40.2405 27.5045C40.1375 27.4769 40.03 27.4699 39.9243 27.4839C39.8186 27.4979 39.7166 27.5326 39.6243 27.5861L36.8553 29.1861V23.2852L38.5886 24.2873L42.8006 26.7194V33.5639L37.6602 30.5966L40.4379 28.9933C40.5302 28.9398 40.6111 28.8687 40.676 28.7839C40.7408 28.6992 40.7883 28.6025 40.8158 28.4994C40.8432 28.3963 40.8501 28.2887 40.836 28.183C40.8219 28.0772 40.7871 27.9752 40.7336 27.8829ZM44.4246 33.5639V26.7194L48.642 24.2873L50.3753 23.2852V30.1297L44.4246 33.5639Z" fill="#00DD91"/>
</g>
<defs>
<clipPath id="clip0_1_442">
<rect width="52" height="52" fill="white"/>
</clipPath>
</defs>
</svg>
