<svg width="52" height="52" viewBox="0 0 52 52" fill="none" xmlns="http://www.w3.org/2000/svg">
<g clip-path="url(#clip0_1_414)">
<path d="M2.13708 11.5934C2.02722 10.3439 2.09989 9.08436 2.35335 7.85598C2.69331 6.32484 3.3594 5.05538 4.33388 4.08219C5.69893 2.71628 7.61848 1.96714 10.0324 1.85555C11.202 1.81187 12.3728 1.89145 13.5255 2.09301L13.8313 0.347766C12.5532 0.124583 11.2547 0.0363473 9.95802 0.0852227C7.08215 0.218008 4.76814 1.14145 3.08215 2.82917C1.86416 4.04586 1.03674 5.61031 0.623242 7.47882L0.620647 7.4905C0.331287 8.89015 0.247809 10.3244 0.37281 11.7483L2.13708 11.5934Z" fill="#00DD91"/>
<path d="M0.888672 15.0151C1.11056 15.965 1.38089 16.9027 1.6975 17.8253L3.37397 17.2522C3.07682 16.3867 2.82336 15.5069 2.61445 14.6155L0.888672 15.0151Z" fill="#00DD91"/>
<path d="M6.02337 23.1691C5.4892 22.1955 5.00002 21.2167 4.56879 20.2604L2.95374 20.9887C3.40399 21.987 3.91394 23.0069 4.46974 24.0208L6.02337 23.1691Z" fill="#00DD91"/>
<path d="M12.9408 32.9247C12.8638 32.8369 12.7868 32.7491 12.7107 32.6609L11.3733 33.8222C11.4516 33.9131 11.5307 34.0034 11.6103 34.0938C12.0489 34.5934 12.5173 35.1099 13.0022 35.6293C13.2137 35.8555 13.4278 36.0813 13.6445 36.3062L14.9222 35.0796C14.7111 34.8599 14.5026 34.6397 14.2963 34.4195C13.8236 33.9139 13.3677 33.4109 12.9408 32.9247Z" fill="#00DD91"/>
<path d="M9.23227 31.2197L10.6315 30.1328C10.5026 29.9671 10.3754 29.801 10.2487 29.6345C9.70978 28.926 9.18772 28.2063 8.69853 27.4944L7.23962 28.4996C7.74481 29.2336 8.28331 29.9762 8.83867 30.7063C8.96843 30.878 9.09949 31.0489 9.23227 31.2197Z" fill="#00DD91"/>
<path d="M15.1515 37.8237C16.8245 39.4573 18.5853 40.9984 20.4266 42.4405C22.9235 44.405 25.5888 46.1459 28.3911 47.6433C30.0274 48.5149 31.7237 49.2696 33.4664 49.902L31.8492 50.3652L32.3366 52.0681L36.8331 50.7809L36.8608 50.7731C37.0879 50.7095 37.2804 50.5581 37.3954 50.3522C37.5109 50.1464 37.539 49.9029 37.4742 49.6762L36.2925 45.5508L34.5892 46.0387L35.3401 48.6598C33.225 47.9907 31.1766 47.1269 29.2216 46.0785C26.5118 44.6304 23.9352 42.9465 21.5204 41.0469C19.7298 39.6446 18.017 38.1455 16.3894 36.5564L15.1515 37.8237Z" fill="#00DD91"/>
<path d="M51.4444 38.1129C51.0824 35.8542 50.335 33.4234 49.2229 30.8879L47.6005 31.5999C48.6524 33.9974 49.357 36.2828 49.6948 38.3927C50.3285 42.3551 49.6321 45.4805 47.681 47.4312C46.7152 48.3975 45.4582 49.0605 43.9466 49.4013C42.7255 49.676 41.3389 49.7417 39.8242 49.5964C39.4526 49.561 39.0681 49.5116 38.681 49.4507L38.4042 51.1998C38.8263 51.2664 39.2472 51.3205 39.655 51.3598C40.2329 51.4152 40.7956 51.4429 41.3432 51.4429C42.3492 51.4489 43.3531 51.3438 44.3358 51.1293C46.1806 50.7132 47.7277 49.8905 48.934 48.6838C51.303 46.3148 52.171 42.6596 51.4444 38.1129Z" fill="#00DD91"/>
<path d="M47.1511 26.7861L45.6117 27.6632C46.0395 28.4141 46.4421 29.168 46.8068 29.9037L48.3937 29.1165C48.0135 28.3497 47.5953 27.5659 47.1511 26.7861Z" fill="#00DD91"/>
<path d="M43.0375 20.6276L41.6305 21.7041C42.2897 22.5661 42.9346 23.4589 43.547 24.3572L45.0111 23.3594C44.3801 22.4342 43.7166 21.5155 43.0375 20.6276Z" fill="#00DD91"/>
<path d="M38.66 15.5084L37.3784 16.7316C38.1289 17.5179 38.8672 18.3345 39.5731 19.1598L40.9195 18.0084C40.1924 17.1585 39.4321 16.3172 38.66 15.5084Z" fill="#00DD91"/>
<path d="M15.811 2.11333L16.7067 6.30191L18.4394 5.93167L17.8672 3.25563C19.4931 3.83219 21.0748 4.52639 22.5999 5.33349C25.2746 6.74525 27.8205 8.38885 30.208 10.2453C31.3348 11.1142 32.4688 12.0567 33.5787 13.0463C34.1838 13.5865 34.8036 14.1626 35.4217 14.76C35.679 15.0078 35.9481 15.2716 36.2206 15.5441L37.4732 14.2915C37.1929 14.0113 36.9161 13.7392 36.6518 13.4844C36.0181 12.8724 35.381 12.2803 34.7582 11.7241C33.6168 10.7068 32.4502 9.73703 31.2937 8.84517C30.1678 7.96973 29.0013 7.14015 27.8058 6.35468C28.4853 5.97146 29.1674 5.60857 29.8361 5.27639L29.048 3.68946C28.2534 4.08435 27.442 4.51861 26.6362 4.98011L27.1994 5.96238C25.971 5.17994 24.7136 4.44854 23.4277 3.76774C22.2837 3.16307 21.1085 2.61809 19.9074 2.13539L21.4688 1.80148L21.0982 0.0692139L16.4909 1.05451C16.0359 1.15572 15.7348 1.58954 15.8001 2.05105C15.8027 2.07181 15.8066 2.09257 15.811 2.11333Z" fill="#00DD91"/>
<path d="M0.279231 38.2529C0.0556151 39.5306 -0.0326202 40.8286 0.0166878 42.1249C0.149473 45.0016 1.07248 47.3156 2.75977 49.0029C3.97906 50.2222 5.54394 51.0487 7.42153 51.4618C8.39861 51.6647 9.39428 51.7672 10.3926 51.7667C10.8212 51.7667 11.2503 51.7481 11.6798 51.7105L11.5249 49.9458C10.2766 50.0561 9.01885 49.983 7.79177 49.7291C6.2602 49.3922 4.98857 48.7265 4.01236 47.7503C2.64731 46.3848 1.89818 44.4648 1.78702 42.0505C1.7429 40.8814 1.82248 39.7109 2.02404 38.5583L0.279231 38.2529Z" fill="#00DD91"/>
<path d="M14.9468 51.1951C15.8962 50.9732 16.8339 50.7033 17.756 50.3867L17.1834 48.7102C16.3179 49.0074 15.4381 49.2608 14.5471 49.4697L14.9468 51.1951Z" fill="#00DD91"/>
<path d="M20.9206 49.1297C21.9185 48.6799 22.9388 48.1699 23.9526 47.6141L23.1014 46.0605C22.1269 46.5947 21.1486 47.0839 20.1923 47.5147L20.9206 49.1297Z" fill="#00DD91"/>
<path d="M27.427 43.3851L28.4318 44.844C29.174 44.3327 29.9171 43.7943 30.6385 43.2449C30.8098 43.1148 30.9811 42.9833 31.1519 42.8505L30.0641 41.4517C29.8989 41.5806 29.7328 41.7082 29.5658 41.8345C28.866 42.3678 28.1463 42.8898 27.427 43.3851Z" fill="#00DD91"/>
<path d="M32.593 39.3729L33.7539 40.7111C33.8443 40.6328 33.9347 40.5536 34.026 40.4736C34.5221 40.0376 35.0377 39.5697 35.5606 39.0826C35.7872 38.8707 36.013 38.6562 36.2379 38.439L35.0108 37.1613C34.7911 37.3716 34.5714 37.5818 34.3517 37.7876C33.8426 38.2621 33.3391 38.7184 32.8569 39.1427C32.7691 39.2197 32.6808 39.2963 32.593 39.3729Z" fill="#00DD91"/>
<path d="M38.3234 2.38778C42.2858 1.75456 45.4108 2.45049 47.3619 4.40162C48.3282 5.36745 48.9912 6.6248 49.3321 8.13735C49.6067 9.35793 49.6725 10.7446 49.5271 12.2585C49.4917 12.63 49.4424 13.0145 49.3809 13.4016L51.1309 13.6784C51.1976 13.2559 51.2516 12.835 51.2905 12.428C51.454 10.7269 51.3762 9.15248 51.0604 7.74807C50.6448 5.90292 49.8221 4.35534 48.6149 3.14859C46.2456 0.778781 42.5907 -0.0892988 38.0436 0.63821C35.7849 0.999802 33.3541 1.74721 30.8191 2.85966L31.5306 4.48207C33.9285 3.43016 36.214 2.72558 38.3234 2.38778Z" fill="#00DD91"/>
<path d="M19.0908 12.5108L17.939 11.1648C17.0891 11.8919 16.2478 12.6523 15.439 13.4243L16.6626 14.7059C17.4485 13.955 18.2655 13.2171 19.0908 12.5108Z" fill="#00DD91"/>
<path d="M24.2889 8.53637L23.2915 7.07184C22.3672 7.7016 21.4481 8.36552 20.5597 9.04502L21.6358 10.4525C22.4987 9.79243 23.3914 9.14753 24.2889 8.53637Z" fill="#00DD91"/>
<path d="M50.7124 15.2487L50.7046 15.2211C50.6406 14.9944 50.4892 14.8024 50.2833 14.6878C50.0779 14.5727 49.8348 14.5446 49.6082 14.6095L45.4827 15.7898L45.9697 17.4931L48.5909 16.7431C47.9213 18.8577 47.0576 20.9062 46.0095 22.8612C44.5619 25.571 42.8785 28.1475 40.9784 30.5619C39.5757 32.353 38.0766 34.0662 36.4879 35.6942L37.7552 36.9317C39.3889 35.2583 40.9295 33.497 42.3716 31.6557C44.3365 29.1592 46.0774 26.494 47.5744 23.6916C48.446 22.055 49.2007 20.3586 49.8335 18.616L50.2967 20.2336L52 19.7466L50.7124 15.2487Z" fill="#00DD91"/>
<path d="M1.85813 36.2919C1.89922 36.2919 1.94031 36.2893 1.9814 36.2837C2.0026 36.2807 2.02379 36.2768 2.04455 36.2725L6.23356 35.3767L5.86289 33.6444L3.18685 34.2167C3.76298 32.5904 4.45761 31.0086 5.26514 29.4835C6.6769 26.8092 8.3205 24.263 10.1765 21.875C11.0458 20.7483 11.9883 19.6142 12.9766 18.5052C13.5324 17.8836 14.1086 17.2638 14.6907 16.6613C14.9239 16.4191 15.1734 16.1656 15.4753 15.8642L14.2223 14.6116C13.9122 14.9217 13.6561 15.1821 13.4157 15.4316C12.8188 16.0497 12.2266 16.6864 11.6548 17.3257C10.638 18.4667 9.66825 19.6336 8.77595 20.7906C6.8577 23.2595 5.15874 25.891 3.69896 28.6561C3.09386 29.8002 2.54888 30.9749 2.06661 32.176L1.7327 30.615L0 30.9848L0.985294 35.5921C1.07569 36.0013 1.43901 36.2928 1.85813 36.2919Z" fill="#00DD91"/>
<path d="M18.3591 19.0497V33.102C18.3591 33.8516 18.78 34.9078 20.9128 35.6794C22.2943 36.1794 24.0996 36.4545 26.0174 36.4545H26.0836C27.1917 36.4541 28.2977 36.3529 29.3872 36.153C32.1489 35.6227 33.7501 34.5107 33.7501 33.1016V19.0497C33.7501 18.3001 33.2813 17.2447 31.1481 16.4722C29.7661 15.9722 27.937 15.6971 26.017 15.6971C24.097 15.6971 22.2994 15.9727 20.9175 16.4722C18.7852 17.2443 18.3591 18.3001 18.3591 19.0497ZM31.9785 33.102C31.9785 33.2681 31.2614 33.9887 29.0568 34.4121C28.0542 34.5964 27.0369 34.6872 26.0174 34.6829C24.2968 34.6829 22.7142 34.4454 21.5209 34.0133C20.3544 33.5912 20.1308 33.1677 20.1308 33.102V30.6292C20.3829 30.7629 20.6442 30.8779 20.9128 30.9735C22.2943 31.4735 24.0996 31.7486 26.0209 31.7486C27.9417 31.7486 29.7744 31.4731 31.1558 30.9735C31.4586 30.8641 31.6463 30.7486 31.9785 30.6292V33.102ZM31.9785 28.2984V28.3961C31.9785 28.4623 31.7121 28.8857 30.546 29.3079C29.3535 29.7395 27.7385 29.977 26.0174 29.977C24.2964 29.977 22.7138 29.7395 21.5205 29.3074C20.3544 28.8853 20.1308 28.4618 20.1308 28.3961V25.9558C20.3829 26.0899 20.6442 26.2049 20.9132 26.3005C22.2943 26.7997 24.0996 27.0756 26.0209 27.0756C27.9417 27.0756 29.7744 26.8001 31.1554 26.3005C31.4582 26.1907 31.6463 26.0756 31.9785 25.9562V28.2984ZM31.9785 23.7235C31.9785 23.7893 31.7121 24.2127 30.5464 24.6344C29.3535 25.0661 27.7385 25.3035 26.0174 25.3035C24.2964 25.3035 22.7138 25.0657 21.5209 24.6344C20.3544 24.2127 20.1308 23.7893 20.1308 23.7235V21.2819C20.3825 21.416 20.6442 21.5311 20.9128 21.6266C22.2947 22.1271 24.1 22.4017 26.0209 22.4017C27.9413 22.4017 29.7735 22.1262 31.1554 21.6266C31.4582 21.5172 31.6463 21.4017 31.9785 21.2824V23.7235ZM21.4885 18.1383C22.6822 17.7062 24.2869 17.4683 26.0071 17.4683C27.7276 17.4683 29.3314 17.7062 30.5248 18.1383C31.6913 18.5605 31.9366 18.9839 31.9366 19.0497C31.9366 19.1154 31.6913 19.5384 30.5248 19.961C29.3314 20.3926 27.7272 20.6305 26.0071 20.6305C24.2869 20.6305 22.6822 20.3931 21.4885 19.961C20.3219 19.5384 20.0767 19.1154 20.0767 19.0497C20.0767 18.9839 20.3219 18.5605 21.4885 18.1383Z" fill="#00DD91"/>
</g>
<defs>
<clipPath id="clip0_1_414">
<rect width="52" height="52" fill="white"/>
</clipPath>
</defs>
</svg>
