<svg width="52" height="52" viewBox="0 0 52 52" fill="none" xmlns="http://www.w3.org/2000/svg">
<path d="M46.9476 35.3109H45.2833V33.7636C45.2833 33.3149 44.9195 32.9511 44.4708 32.9511H42.4876V13.5172H44.4708C44.9195 13.5172 45.2833 13.1534 45.2833 12.7047V11.1574H46.9476C47.3306 11.1574 47.6616 10.89 47.7419 10.5155C47.8223 10.141 47.6303 9.7613 47.2811 9.60398L26.3339 0.173088C26.1218 0.0777207 25.8789 0.0777207 25.6668 0.173088L4.71922 9.60398C4.37005 9.7612 4.17799 10.141 4.25843 10.5155C4.33877 10.89 4.66976 11.1574 5.05275 11.1574H6.71716V12.7047C6.71716 13.1534 7.08096 13.5172 7.52966 13.5172H9.51287V32.9511H7.52966C7.08096 32.9511 6.71716 33.3149 6.71716 33.7636V35.3109H5.05285C4.60415 35.3109 4.24035 35.6747 4.24035 36.1234V38.7697C4.24035 39.2184 4.60415 39.5822 5.05285 39.5822H15.2847V42.8201L11.2889 45.0636C10.759 44.5412 10.0323 44.218 9.23124 44.218C7.61406 44.218 6.29842 45.5336 6.29842 47.1507C6.29842 48.7678 7.61406 50.0834 9.23124 50.0834C10.8483 50.0834 12.164 48.7678 12.164 47.1507C12.164 46.9199 12.1363 46.6955 12.0857 46.4799L16.4951 44.0041C16.7511 43.8603 16.9098 43.5894 16.9098 43.2956V39.5822H17.4344C18.2699 40.3158 19.1998 40.9439 20.2035 41.4463V43.3123L18.1854 46.1922C17.8869 46.0895 17.5671 46.0329 17.2341 46.0329C15.6169 46.0329 14.3012 47.3486 14.3012 48.9656C14.3012 50.5827 15.6167 51.8984 17.2339 51.8984C18.8509 51.8984 20.1666 50.5827 20.1666 48.9656C20.1666 48.2693 19.9222 47.6293 19.5153 47.1257L21.6813 44.0349C21.7769 43.8983 21.8283 43.7355 21.8283 43.5686V42.1262C22.8932 42.4881 24.02 42.7145 25.1877 42.7868V46.1482C23.9647 46.5014 23.0674 47.6304 23.0674 48.9655C23.0675 50.5827 24.3831 51.8984 26.0002 51.8984C27.6174 51.8984 28.933 50.5827 28.933 48.9656C28.933 47.6305 28.0358 46.5016 26.8128 46.1483V42.7868C27.9806 42.7144 29.1073 42.488 30.1722 42.1262V43.5686C30.1722 43.7355 30.2236 43.8983 30.3193 44.0349L32.4853 47.1257C32.0784 47.6293 31.834 48.2693 31.834 48.9656C31.834 50.5827 33.1496 51.8984 34.7667 51.8984C36.3838 51.8984 37.6994 50.5827 37.6994 48.9656C37.6994 47.3486 36.3838 46.0329 34.7667 46.0329C34.4337 46.0329 34.1138 46.0895 33.8154 46.1922L31.7972 43.3123V41.4463C32.8008 40.944 33.7309 40.3159 34.5663 39.5822H35.0909V43.2956C35.0909 43.5894 35.2495 43.8603 35.5056 44.0041L39.9151 46.4799C39.8644 46.6955 39.8368 46.9199 39.8368 47.1506C39.8368 48.7677 41.1524 50.0833 42.7695 50.0833C44.3866 50.0833 45.7022 48.7677 45.7022 47.1506C45.7022 45.5335 44.3866 44.2179 42.7695 44.2179C41.9684 44.2179 41.2416 44.5411 40.7118 45.0635L36.7159 42.82V39.5821H46.9477C47.3964 39.5821 47.7602 39.2183 47.7602 38.7696V36.1233C47.7601 35.6748 47.3963 35.3109 46.9476 35.3109ZM9.23114 48.4584C8.50994 48.4584 7.92332 47.8718 7.92332 47.1507C7.92332 46.4296 8.50994 45.843 9.23114 45.843C9.95223 45.843 10.5389 46.4296 10.5389 47.1507C10.5389 47.8718 9.95223 48.4584 9.23114 48.4584ZM17.2339 50.2734C16.5127 50.2734 15.926 49.6867 15.926 48.9656C15.926 48.2445 16.5127 47.6579 17.2339 47.6579C17.9549 47.6579 18.5416 48.2445 18.5416 48.9656C18.5416 49.6867 17.9549 50.2734 17.2339 50.2734ZM36.0744 48.9656C36.0744 49.6867 35.4878 50.2734 34.7667 50.2734C34.0456 50.2734 33.459 49.6867 33.459 48.9656C33.459 48.2445 34.0456 47.6579 34.7667 47.6579C35.4878 47.6579 36.0744 48.2445 36.0744 48.9656ZM42.7694 45.843C43.4905 45.843 44.0771 46.4296 44.0771 47.1507C44.0771 47.8718 43.4905 48.4584 42.7694 48.4584C42.0483 48.4584 41.4617 47.8718 41.4617 47.1507C41.4617 46.4296 42.0483 45.843 42.7694 45.843ZM43.6584 35.3109H37.7771C37.89 35.0697 37.9967 34.825 38.095 34.5761H43.6583L43.6584 35.3109ZM18.4391 13.5172V19.2496C17.4058 19.9911 16.4856 20.8804 15.709 21.886V13.5172H18.4391ZM20.0641 13.5172H23.0102V17.1654C21.9753 17.41 20.9876 17.7783 20.0641 18.2545V13.5172ZM24.6352 13.5172H27.3652V16.8893C26.9165 16.8422 26.4612 16.8177 26.0003 16.8177C25.5393 16.8177 25.084 16.8422 24.6353 16.8893V13.5172H24.6352ZM28.9902 13.5172H31.9364V18.2545C31.0129 17.7783 30.0252 17.41 28.9902 17.1653V13.5172ZM33.5614 13.5172H36.2914V21.8859C35.5148 20.8804 34.5946 19.9911 33.5614 19.2496V13.5172ZM40.8626 32.9511H38.6146C38.8643 31.9464 38.9979 30.8962 38.9979 29.8153C38.9979 27.9721 38.6113 26.2176 37.9164 24.6275V13.5172H40.8627V32.9511H40.8626ZM26.0002 1.80499L43.1638 9.53238H8.83657L26.0002 1.80499ZM8.34216 11.1574H43.6584V11.8922H8.34216V11.1574ZM11.138 13.5172H14.0841V24.6278C13.3892 26.2178 13.0028 27.9722 13.0028 29.8154C13.0028 30.8964 13.1362 31.9465 13.3861 32.9512H11.1381L11.138 13.5172ZM8.34216 34.5761H13.9054C14.0038 34.825 14.1104 35.0698 14.2233 35.3109H8.34216V34.5761ZM5.86535 36.9359H15.1323C15.3642 37.2886 15.6127 37.6293 15.8769 37.9572H5.86535V36.9359ZM27.3079 48.9656C27.3079 49.6867 26.7213 50.2734 26.0001 50.2734C25.279 50.2734 24.6924 49.6867 24.6924 48.9656C24.6924 48.2445 25.2791 47.6579 26.0002 47.6579C26.7213 47.6579 27.3079 48.2445 27.3079 48.9656ZM26.0002 41.188C19.7293 41.188 14.6276 36.0863 14.6276 29.8153C14.6276 23.5443 19.7293 18.4428 26.0002 18.4428C32.2711 18.4428 37.3729 23.5444 37.3729 29.8154C37.3729 36.0864 32.2712 41.188 26.0002 41.188ZM46.1351 37.9572H36.1237C36.3878 37.6294 36.6364 37.2886 36.8682 36.9359H46.1351V37.9572ZM26.0002 20.1178C20.6531 20.1178 16.3027 24.4681 16.3027 29.8153C16.3027 35.1626 20.6531 39.5128 26.0002 39.5128C31.3474 39.5128 35.6976 35.1625 35.6976 29.8153C35.6976 24.4682 31.3475 20.1178 26.0002 20.1178ZM26.0002 37.8879C21.549 37.8879 17.9277 34.2666 17.9277 29.8154C17.9277 25.3642 21.549 21.7429 26.0002 21.7429C30.4514 21.7429 34.0726 25.3642 34.0726 29.8154C34.0726 34.2666 30.4515 37.8879 26.0002 37.8879ZM28.9294 31.7192C28.9294 33.0111 28.023 34.0952 26.8127 34.3689V34.8704C26.8127 35.3191 26.4489 35.6829 26.0002 35.6829C25.5515 35.6829 25.1877 35.3191 25.1877 34.8704V34.4015C24.4822 34.2881 23.8383 33.8965 23.4117 33.3065C23.1488 32.9429 23.2304 32.435 23.594 32.1721C23.9575 31.909 24.4655 31.9907 24.7285 32.3544C24.935 32.64 25.266 32.8106 25.6137 32.8106H26.213C26.8149 32.8106 27.3044 32.3211 27.3044 31.7192C27.3044 31.1174 26.8149 30.6278 26.213 30.6278H25.7874C24.2896 30.6278 23.0711 29.4093 23.0711 27.9114C23.0711 26.6196 23.9775 25.5354 25.1878 25.2617V24.7603C25.1878 24.3116 25.5516 23.9478 26.0003 23.9478C26.449 23.9478 26.8128 24.3116 26.8128 24.7603V25.2291C27.5184 25.3425 28.1622 25.7341 28.5888 26.3241C28.8518 26.6877 28.7702 27.1957 28.4065 27.4586C28.0428 27.7217 27.535 27.6399 27.2721 27.2764C27.0654 26.9907 26.7345 26.82 26.3868 26.82H25.7874C25.1856 26.82 24.6961 27.3097 24.6961 27.9115C24.6961 28.5134 25.1856 29.0029 25.7874 29.0029H26.213C27.7108 29.0028 28.9294 30.2214 28.9294 31.7192Z" fill="#00DD91"/>
</svg>
