<svg width="105" height="104" viewBox="0 0 105 104" fill="none" xmlns="http://www.w3.org/2000/svg">
<g id="idea 1">
<path id="Vector" d="M80.2997 91.962C60.3173 91.962 46.595 102.313 36.9664 102.313C27.3377 102.313 7.11548 96.7778 7.11548 52.4825C7.11548 8.18712 34.3201 1.68423 44.9108 1.68423C94.5044 1.68423 115.689 91.962 80.2997 91.962Z" fill="#EFEFEF"/>
<path id="Vector_2" d="M42.389 17.3333C39.9999 17.3333 38.0557 15.3891 38.0557 13C38.0557 10.6109 39.9999 8.66666 42.389 8.66666C44.7781 8.66666 46.7223 10.6109 46.7223 13C46.7223 15.3891 44.7781 17.3333 42.389 17.3333ZM42.389 11.5555C41.5917 11.5555 40.9446 12.2027 40.9446 13C40.9446 13.7973 41.5917 14.4444 42.389 14.4444C43.1863 14.4444 43.8334 13.7973 43.8334 13C43.8334 12.2027 43.1863 11.5555 42.389 11.5555Z" fill="#A4AFC1"/>
<path id="Vector_3" d="M84.9999 30.4547C84.9999 24.3504 80.0628 19.4133 74.0048 19.5029C68.2733 19.5867 63.443 24.4487 63.3333 30.2409C63.2668 33.8173 64.8933 37.0095 67.4586 39.0549C69.0013 40.2855 69.9979 42.0738 69.9979 44.0584V47.6551C69.9979 49.0909 70.7433 49.8362 71.6648 49.8362H76.6655C77.587 49.8362 78.3324 49.0822 78.3324 48.152V44.3415C78.3324 42.2095 79.3926 40.2827 81.0248 38.9335C83.4515 36.92 84.9999 33.8722 84.9999 30.4547Z" fill="#00DD91"/>
<path id="Vector_4" d="M47.7103 82.628L50.3334 57.0555H25.7778L28.4009 82.628C28.5512 84.1013 29.7934 85.2222 31.2754 85.2222H44.8387C46.3178 85.2222 47.5601 84.1013 47.7103 82.628Z" fill="#00DD91"/>
<g id="Group">
<path id="Vector_5" d="M38.0557 38.2778C40.0501 38.2778 41.6668 36.661 41.6668 34.6667C41.6668 32.6723 40.0501 31.0555 38.0557 31.0555C36.0613 31.0555 34.4446 32.6723 34.4446 34.6667C34.4446 36.661 36.0613 38.2778 38.0557 38.2778Z" fill="#F3F3F1"/>
<path id="Vector_6" d="M28.6667 49.8333C28.6667 47.4413 30.6081 45.5 33.0001 45.5H43.1112C45.5032 45.5 47.4445 47.4413 47.4445 49.8333V57.0556H28.6667V49.8333Z" fill="#F3F3F1"/>
<path id="Vector_7" d="M61.8889 84.5C61.8889 82.108 59.9476 80.1667 57.5556 80.1667H53.2222C50.8302 80.1667 48.8889 82.108 48.8889 84.5V86.6667H61.8889V84.5Z" fill="#F3F3F1"/>
<path id="Vector_8" d="M85 84.5C85 82.108 83.0587 80.1667 80.6667 80.1667H76.3333C73.9413 80.1667 72 82.108 72 84.5V86.6667H85V84.5Z" fill="#F3F3F1"/>
</g>
<path id="Vector_9" d="M76.5009 47.6522V44.0556C76.5009 42.0709 75.5013 40.2827 73.9615 39.052C71.3962 37.0067 69.7697 33.8144 69.8362 30.238C69.9257 25.5204 73.1613 21.4702 77.4484 20.0662C76.3593 19.7138 75.2153 19.4827 74.0077 19.5C68.2762 19.5838 63.446 24.4458 63.3362 30.238C63.2697 33.8144 64.8962 37.0067 67.4615 39.052C69.0042 40.2827 70.0009 42.0709 70.0009 44.0556V47.6522C70.0009 49.088 70.7462 49.8333 71.6677 49.8333H76.6684C76.9486 49.8333 77.1971 49.7467 77.4282 49.6253C76.8822 49.3191 76.5009 48.6691 76.5009 47.6522Z" fill="#00B871"/>
<path id="Vector_10" d="M34.9009 82.628L32.2778 57.0555H25.7778L28.4009 82.628C28.5512 84.1013 29.7934 85.2222 31.2754 85.2222H37.7754C36.2934 85.2222 35.0512 84.1013 34.9009 82.628Z" fill="#00B871"/>
<path id="Vector_11" d="M40.9443 34.6667C40.9443 34.1178 41.0859 33.6122 41.3054 33.1471C40.7277 31.9193 39.4999 31.0555 38.0554 31.0555C36.0621 31.0555 34.4443 32.6733 34.4443 34.6667C34.4443 36.66 36.0621 38.2778 38.0554 38.2778C39.4999 38.2778 40.7277 37.414 41.3054 36.1862C41.0859 35.7211 40.9443 35.2155 40.9443 34.6667Z" fill="#D5DBE1"/>
<path id="Vector_12" d="M39.5001 45.5H33.0001C30.6081 45.5 28.6667 47.4413 28.6667 49.8333V57.0556H35.1667V49.8333C35.1667 47.4413 37.1081 45.5 39.5001 45.5Z" fill="#D5DBE1"/>
<path id="Vector_13" d="M58.6389 80.3198C58.2894 80.2302 57.9311 80.1667 57.5556 80.1667H53.2222C50.8302 80.1667 48.8889 82.108 48.8889 84.5V86.6667H55.3889V84.5C55.3889 82.4835 56.7727 80.8022 58.6389 80.3198Z" fill="#D5DBE1"/>
<path id="Vector_14" d="M81.75 80.3198C81.4004 80.2302 81.0422 80.1667 80.6667 80.1667H76.3333C73.9413 80.1667 72 82.108 72 84.5V86.6667H78.5V84.5C78.5 82.4835 79.8838 80.8022 81.75 80.3198Z" fill="#D5DBE1"/>
<path id="Vector_15" d="M76.6657 52H71.6679C69.7612 52 67.8343 50.5064 67.8343 47.6522V44.0556C67.8343 42.8278 67.2046 41.6202 66.1097 40.7449C62.8915 38.1767 61.0917 34.3316 61.1697 30.1947C61.3026 23.2036 67.0486 17.4344 73.9761 17.3304C77.4255 17.2351 80.7563 18.6044 83.2494 21.0629C85.7772 23.556 87.1668 26.8898 87.1668 30.4547C87.1668 34.398 85.4335 38.0958 82.4088 40.6004C81.1955 41.6058 80.4992 42.9664 80.4992 44.3387V48.1491C80.4992 50.2724 78.7803 52 76.6657 52ZM72.1677 47.6667H76.1688V44.3387C76.1688 41.6722 77.437 39.0924 79.647 37.2609C81.675 35.5824 82.8363 33.1009 82.8363 30.4547C82.8363 28.0598 81.9032 25.8209 80.2103 24.154C78.5492 22.5189 76.3392 21.5338 74.0426 21.6696C69.5012 21.736 65.5926 25.6793 65.5059 30.2813C65.451 33.0604 66.6586 35.6402 68.8166 37.362C70.9486 39.0636 72.1734 41.5047 72.1734 44.0584V47.6551C72.1677 47.658 72.1677 47.6638 72.1677 47.6667Z" fill="#041728"/>
<path id="Vector_16" d="M40.9444 86.6667H28.6667C27.5602 86.6667 26.63 85.8318 26.5116 84.734L23.3887 55.8567L27.696 55.3916L30.608 82.3333H40.9444V86.6667Z" fill="#041728"/>
<path id="Vector_17" d="M17.8333 54.8889H58.2777V59.2222H17.8333V54.8889Z" fill="#041728"/>
<path id="Vector_18" d="M38.0556 40.4444C34.8692 40.4444 32.2778 37.8531 32.2778 34.6667C32.2778 31.4802 34.8692 28.8889 38.0556 28.8889C41.2421 28.8889 43.8334 31.4802 43.8334 34.6667C43.8334 37.8531 41.2421 40.4444 38.0556 40.4444ZM38.0556 33.2222C37.2583 33.2222 36.6112 33.8693 36.6112 34.6667C36.6112 35.464 37.2583 36.1111 38.0556 36.1111C38.8529 36.1111 39.5001 35.464 39.5001 34.6667C39.5001 33.8693 38.8529 33.2222 38.0556 33.2222Z" fill="#041728"/>
<path id="Vector_19" d="M49.6111 52H45.2778V49.8333C45.2778 48.6373 44.3071 47.6667 43.1111 47.6667H33C31.804 47.6667 30.8333 48.6373 30.8333 49.8333V52H26.5V49.8333C26.5 46.2482 29.4149 43.3333 33 43.3333H43.1111C46.6962 43.3333 49.6111 46.2482 49.6111 49.8333V52Z" fill="#041728"/>
<path id="Vector_20" d="M78.5001 75.1111C80.8933 75.1111 82.8334 73.171 82.8334 70.7778C82.8334 68.3846 80.8933 66.4445 78.5001 66.4445C76.1068 66.4445 74.1667 68.3846 74.1667 70.7778C74.1667 73.171 76.1068 75.1111 78.5001 75.1111Z" fill="#041728"/>
<path id="Vector_21" d="M87.1666 86.6667H82.8333V84.5C82.8333 83.304 81.8626 82.3333 80.6666 82.3333H76.3333C75.1373 82.3333 74.1666 83.304 74.1666 84.5V86.6667H69.8333V84.5C69.8333 80.9149 72.7481 78 76.3333 78H80.6666C84.2517 78 87.1666 80.9149 87.1666 84.5V86.6667Z" fill="#041728"/>
<path id="Vector_22" d="M55.389 75.1111C57.7822 75.1111 59.7223 73.171 59.7223 70.7778C59.7223 68.3846 57.7822 66.4445 55.389 66.4445C52.9958 66.4445 51.0557 68.3846 51.0557 70.7778C51.0557 73.171 52.9958 75.1111 55.389 75.1111Z" fill="#041728"/>
<path id="Vector_23" d="M64.0555 86.6667H59.7222V84.5C59.7222 83.304 58.7515 82.3333 57.5555 82.3333H53.2222C52.0262 82.3333 51.0555 83.304 51.0555 84.5V86.6667H46.7222V84.5C46.7222 80.9149 49.6371 78 53.2222 78H57.5555C61.1406 78 64.0555 80.9149 64.0555 84.5V86.6667Z" fill="#041728"/>
</g>
</svg>
