<svg width="105" height="104" viewBox="0 0 105 104" fill="none" xmlns="http://www.w3.org/2000/svg">
<g id="investment 1">
<path id="Vector" d="M12.5379 24.2002C12.5379 44.1827 2.18701 57.9049 2.18701 67.5335C2.18701 77.1622 7.72212 97.3844 52.0175 97.3844C96.3128 97.3844 102.813 70.1798 102.813 59.5891C102.816 9.99555 12.5379 -11.1887 12.5379 24.2002Z" fill="#EFEFEF"/>
<path id="Vector_2" d="M13.1389 9.38889H16.0278V15.1667H13.1389V9.38889Z" fill="#A4AFC1"/>
<path id="Vector_3" d="M3.75 18.0555H9.52778V20.9444H3.75V18.0555Z" fill="#A4AFC1"/>
<path id="Vector_4" d="M64.7777 65.7222V78.7222C64.7777 81.9 62.1777 84.5 58.9999 84.5H45.9999C42.8222 84.5 40.2222 81.9 40.2222 78.7222V65.7222H64.7777Z" fill="#F3F3F1"/>
<path id="Vector_5" d="M64.7777 65.7222H40.2221C38.6275 65.7222 37.3333 65.1502 37.3333 63.5555V59.9444C37.3333 58.3498 38.6275 57.0555 40.2221 57.0555H64.7777C66.3724 57.0555 67.6666 58.3498 67.6666 59.9444V62.8333C67.6666 64.428 66.3724 65.7222 64.7777 65.7222Z" fill="#F3F3F1"/>
<path id="Vector_6" d="M44.5556 28.1667H22.8889C21.3 28.1667 20 29.4667 20 31.0555V44.0555C20 45.6444 21.3 46.9444 22.8889 46.9444H44.5556C46.1502 46.9444 47.4444 45.6502 47.4444 44.0555V31.0555C47.4444 29.4609 46.1502 28.1667 44.5556 28.1667Z" fill="#2FDF84"/>
<path id="Vector_7" d="M82.1112 19.5H60.4446C58.8557 19.5 57.5557 20.8 57.5557 22.3889V35.3889C57.5557 36.9778 58.8557 38.2778 60.4446 38.2778H82.1112C83.7059 38.2778 85.0001 36.9836 85.0001 35.3889V22.3889C85.0001 20.7942 83.7059 19.5 82.1112 19.5Z" fill="#2FDF84"/>
<path id="Vector_8" d="M46.7222 78.7222V65.7222H40.2222V78.7222C40.2222 81.9 42.8222 84.5 45.9999 84.5H52.4999C49.3222 84.5 46.7222 81.9 46.7222 78.7222Z" fill="#D5DBE1"/>
<path id="Vector_9" d="M43.8333 63.5555V59.9444C43.8333 58.3498 45.1275 57.0555 46.7221 57.0555H40.2221C38.6275 57.0555 37.3333 58.3498 37.3333 59.9444V63.5555C37.3333 65.1502 38.6275 65.7222 40.2221 65.7222H46.7221C45.1275 65.7222 43.8333 65.1502 43.8333 63.5555Z" fill="#D5DBE1"/>
<path id="Vector_10" d="M26.5 44.0555V31.0555C26.5 29.4667 27.8 28.1667 29.3889 28.1667H22.8889C21.3 28.1667 20 29.4667 20 31.0555V44.0555C20 45.6444 21.3 46.9444 22.8889 46.9444H29.3889C27.8 46.9444 26.5 45.6444 26.5 44.0555Z" fill="#00B871"/>
<path id="Vector_11" d="M64.0557 35.3889V22.3889C64.0557 20.8 65.3557 19.5 66.9446 19.5H60.4446C58.8557 19.5 57.5557 20.8 57.5557 22.3889V35.3889C57.5557 36.9778 58.8557 38.2778 60.4446 38.2778H66.9446C65.3557 38.2778 64.0557 36.9778 64.0557 35.3889Z" fill="#00B871"/>
<path id="Vector_12" d="M59.0001 86.6667H46.0001C41.6177 86.6667 38.0557 83.1047 38.0557 78.7222V65.7222H42.389V78.7222C42.389 80.7127 44.0097 82.3333 46.0001 82.3333H59.0001C60.9906 82.3333 62.6112 80.7127 62.6112 78.7222V65.7222H66.9446V78.7222C66.9446 83.1047 63.3826 86.6667 59.0001 86.6667Z" fill="#041728"/>
<path id="Vector_13" d="M64.7779 67.8889H40.2223C36.4899 67.8889 35.1667 65.5547 35.1667 63.5556V59.9444C35.1667 57.1567 37.4345 54.8889 40.2223 54.8889H64.7779C67.5656 54.8889 69.8334 57.1567 69.8334 59.9444V62.8333C69.8334 65.6211 67.5656 67.8889 64.7779 67.8889ZM39.5347 63.5122C39.6301 63.5122 39.867 63.5556 40.2223 63.5556H64.7779C65.1765 63.5556 65.5001 63.232 65.5001 62.8333V59.9444C65.5001 59.5458 65.1765 59.2222 64.7779 59.2222H40.2223C39.8236 59.2222 39.5001 59.5458 39.5001 59.9444V63.518C39.5087 63.5151 39.5203 63.5122 39.5347 63.5122Z" fill="#041728"/>
<path id="Vector_14" d="M54.6667 52.8956H50.3334V50.7289C50.3334 45.4567 46.0434 41.1667 40.7712 41.1667H38.6045V36.8333H40.7712C48.4325 36.8333 54.6667 43.0676 54.6667 50.7289V52.8956Z" fill="#041728"/>
<path id="Vector_15" d="M54.6666 58.5H50.3333V46.2222C50.3333 38.116 55.0797 30.6771 62.4233 27.2711L64.3877 26.3582L66.2106 30.29L64.2433 31.2C58.425 33.9011 54.6666 39.7944 54.6666 46.2222V58.5Z" fill="#041728"/>
<path id="Vector_16" d="M82.1112 40.4445H63.3334V36.1111H82.1112C82.5041 36.1111 82.8334 35.7818 82.8334 35.3889V22.3889C82.8334 21.996 82.5041 21.6667 82.1112 21.6667H57.5557V17.3333H82.1112C84.899 17.3333 87.1668 19.6011 87.1668 22.3889V35.3889C87.1668 38.1767 84.899 40.4445 82.1112 40.4445Z" fill="#041728"/>
<path id="Vector_17" d="M71.2778 27.4445H78.5001V31.7778H71.2778V27.4445Z" fill="#041728"/>
<path id="Vector_18" d="M41.6666 49.1111H22.8888C20.101 49.1111 17.8333 46.8433 17.8333 44.0556V31.0556C17.8333 28.2678 20.101 26 22.8888 26H47.4444V30.3333H22.8888C22.4959 30.3333 22.1666 30.6627 22.1666 31.0556V44.0556C22.1666 44.4484 22.4959 44.7778 22.8888 44.7778H41.6666V49.1111Z" fill="#041728"/>
<path id="Vector_19" d="M26.5 34.6667H33.7222V39H26.5V34.6667Z" fill="#041728"/>
<path id="Vector_20" d="M6.27783 82.3333H98.7223V86.6667H6.27783V82.3333Z" fill="#041728"/>
</g>
</svg>
