<svg width="105" height="104" viewBox="0 0 105 104" fill="none" xmlns="http://www.w3.org/2000/svg">
<g id="business-presentation 1">
<g id="Group">
<path id="Vector" d="M12.5379 24.2002C12.5379 44.1827 2.18701 57.9049 2.18701 67.5335C2.18701 77.1622 7.72212 97.3844 52.0175 97.3844C96.3128 97.3844 102.813 70.1798 102.813 59.5891C102.816 9.99555 12.5379 -11.1887 12.5379 24.2002Z" fill="#EFEFEF"/>
</g>
<g id="Group_2">
<path id="Vector_2" d="M92.9444 15.8889C90.5553 15.8889 88.6111 13.9447 88.6111 11.5556C88.6111 9.16645 90.5553 7.22223 92.9444 7.22223C95.3335 7.22223 97.2777 9.16645 97.2777 11.5556C97.2777 13.9447 95.3335 15.8889 92.9444 15.8889ZM92.9444 10.1111C92.1471 10.1111 91.5 10.7582 91.5 11.5556C91.5 12.3529 92.1471 13 92.9444 13C93.7418 13 94.3889 12.3529 94.3889 11.5556C94.3889 10.7582 93.7418 10.1111 92.9444 10.1111Z" fill="#A4AFC1"/>
</g>
<g id="Group_3">
<path id="Vector_3" d="M75.6111 64.2778C77.6055 64.2778 79.2222 62.661 79.2222 60.6667C79.2222 58.6723 77.6055 57.0555 75.6111 57.0555C73.6167 57.0555 72 58.6723 72 60.6667C72 62.661 73.6167 64.2778 75.6111 64.2778Z" fill="#F3F3F1"/>
</g>
<g id="Group_4">
<path id="Vector_4" d="M29.3889 64.2778C31.3833 64.2778 33.0001 62.661 33.0001 60.6667C33.0001 58.6723 31.3833 57.0555 29.3889 57.0555C27.3946 57.0555 25.7778 58.6723 25.7778 60.6667C25.7778 62.661 27.3946 64.2778 29.3889 64.2778Z" fill="#F3F3F1"/>
</g>
<g id="Group_5">
<path id="Vector_5" d="M52.5 65.7222C56.0899 65.7222 59 62.8121 59 59.2222C59 55.6324 56.0899 52.7222 52.5 52.7222C48.9101 52.7222 46 55.6324 46 59.2222C46 62.8121 48.9101 65.7222 52.5 65.7222Z" fill="#F3F3F1"/>
</g>
<g id="Group_6">
<path id="Vector_6" d="M66.2223 86.6667V80.1667C66.2223 76.9744 63.6367 74.3889 60.4445 74.3889H44.5556C41.3634 74.3889 38.7778 76.9744 38.7778 80.1667V86.6667H66.2223Z" fill="#F3F3F1"/>
</g>
<g id="Group_7">
<path id="Vector_7" d="M38.7778 80.8889V77.2778C38.7778 74.0856 36.1922 71.5 33 71.5H25.7778C22.5856 71.5 20 74.0856 20 77.2778V80.8889H38.7778Z" fill="#F3F3F1"/>
</g>
<g id="Group_8">
<path id="Vector_8" d="M84.9999 80.8889V77.2778C84.9999 74.0856 82.4144 71.5 79.2222 71.5H71.9999C68.8077 71.5 66.2222 74.0856 66.2222 77.2778V80.8889H84.9999Z" fill="#F3F3F1"/>
</g>
<g id="Group_9">
<path id="Vector_9" d="M70.5556 49.8333C73.7334 49.8333 76.3334 47.2333 76.3334 44.0556V19.5H28.6667V44.0556C28.6667 47.2333 31.2667 49.8333 34.4445 49.8333H70.5556Z" fill="#00DD91"/>
</g>
<g id="Group_10">
<path id="Vector_10" d="M78.5 60.6667C78.5 60.1178 78.6416 59.6122 78.8611 59.1471C78.2833 57.9193 77.0556 57.0555 75.6111 57.0555C73.6178 57.0555 72 58.6733 72 60.6667C72 62.66 73.6178 64.2778 75.6111 64.2778C77.0556 64.2778 78.2833 63.414 78.8611 62.1862C78.6416 61.7211 78.5 61.2155 78.5 60.6667Z" fill="#D5DBE1"/>
</g>
<g id="Group_11">
<path id="Vector_11" d="M32.2778 60.6667C32.2778 60.1178 32.4194 59.6122 32.6389 59.1471C32.0612 57.9193 30.8334 57.0555 29.3889 57.0555C27.3956 57.0555 25.7778 58.6733 25.7778 60.6667C25.7778 62.66 27.3956 64.2778 29.3889 64.2778C30.8334 64.2778 32.0612 63.414 32.6389 62.1862C32.4194 61.7211 32.2778 61.2155 32.2778 60.6667Z" fill="#D5DBE1"/>
</g>
<g id="Group_12">
<path id="Vector_12" d="M52.5 59.2222C52.5 56.8216 53.8144 54.7502 55.75 53.6236C54.7909 53.066 53.6902 52.7222 52.5 52.7222C48.9091 52.7222 46 55.6313 46 59.2222C46 62.8131 48.9091 65.7222 52.5 65.7222C53.6902 65.7222 54.7909 65.3785 55.75 64.8209C53.8144 63.6942 52.5 61.6229 52.5 59.2222Z" fill="#D5DBE1"/>
</g>
<g id="Group_13">
<path id="Vector_13" d="M51.0556 74.3889H44.5556C41.3634 74.3889 38.7778 76.9744 38.7778 80.1667V86.6667H45.2778V80.1667C45.2778 76.9744 47.8634 74.3889 51.0556 74.3889Z" fill="#D5DBE1"/>
</g>
<g id="Group_14">
<path id="Vector_14" d="M32.2778 71.5H25.7778C22.5856 71.5 20 74.0856 20 77.2778V80.8889H26.5V77.2778C26.5 74.0856 29.0856 71.5 32.2778 71.5Z" fill="#D5DBE1"/>
</g>
<g id="Group_15">
<path id="Vector_15" d="M78.5 71.5H71.9999C68.8077 71.5 66.2222 74.0856 66.2222 77.2778V80.8889H72.7222V77.2778C72.7222 74.0856 75.3077 71.5 78.5 71.5Z" fill="#D5DBE1"/>
</g>
<g id="Group_16">
<path id="Vector_16" d="M35.1668 44.0556V19.5H28.6667V44.0556C28.6667 47.2333 31.2667 49.8333 34.4445 49.8333H40.9445C37.7668 49.8333 35.1668 47.2333 35.1668 44.0556Z" fill="#00B871"/>
</g>
<g id="Group_17">
<path id="Vector_17" d="M22.8889 17.3333H82.1112V21.6667H22.8889V17.3333Z" fill="#041728"/>
</g>
<g id="Group_18">
<path id="Vector_18" d="M70.5556 52H64.0556V47.6667H70.5556C72.546 47.6667 74.1667 46.046 74.1667 44.0556V21.6667H30.8333V44.0556C30.8333 46.046 32.454 47.6667 34.4444 47.6667H40.9444V52H34.4444C30.062 52 26.5 48.438 26.5 44.0556V19.5C26.5 18.304 27.4707 17.3333 28.6667 17.3333H76.3333C77.5293 17.3333 78.5 18.304 78.5 19.5V44.0556C78.5 48.438 74.938 52 70.5556 52Z" fill="#041728"/>
</g>
<g id="Group_19">
<path id="Vector_19" d="M43.1977 42.6978L40.1355 39.6356L47.3577 32.4133C48.0482 31.72 49.1171 31.5785 49.9635 32.0638L53.6411 34.1669L61.8628 26.5778L64.8037 29.7642L55.4148 38.4309C54.7215 39.0722 53.6931 39.1907 52.8697 38.7198L49.2528 36.6513L43.1977 42.6978Z" fill="#041728"/>
</g>
<g id="Group_20">
<path id="Vector_20" d="M65.4999 37.5556H61.1666V30.3333H53.9443V26H63.3332C64.5292 26 65.4999 26.9707 65.4999 28.1667V37.5556Z" fill="#041728"/>
</g>
<g id="Group_21">
<path id="Vector_21" d="M75.611 66.4444C72.4246 66.4444 69.8333 63.8531 69.8333 60.6667C69.8333 57.4802 72.4246 54.8889 75.611 54.8889C78.7975 54.8889 81.3888 57.4802 81.3888 60.6667C81.3888 63.8531 78.7975 66.4444 75.611 66.4444ZM75.611 59.2222C74.8137 59.2222 74.1666 59.8693 74.1666 60.6667C74.1666 61.464 74.8137 62.1111 75.611 62.1111C76.4084 62.1111 77.0555 61.464 77.0555 60.6667C77.0555 59.8693 76.4084 59.2222 75.611 59.2222Z" fill="#041728"/>
</g>
<g id="Group_22">
<path id="Vector_22" d="M87.1666 80.8889H82.8333V77.2778C82.8333 75.2873 81.2126 73.6666 79.2221 73.6666H69.8333V69.3333H79.2221C83.6046 69.3333 87.1666 72.8953 87.1666 77.2778V80.8889Z" fill="#041728"/>
</g>
<g id="Group_23">
<path id="Vector_23" d="M29.3889 66.4444C26.2024 66.4444 23.6111 63.8531 23.6111 60.6667C23.6111 57.4802 26.2024 54.8889 29.3889 54.8889C32.5753 54.8889 35.1666 57.4802 35.1666 60.6667C35.1666 63.8531 32.5753 66.4444 29.3889 66.4444ZM29.3889 59.2222C28.5915 59.2222 27.9444 59.8693 27.9444 60.6667C27.9444 61.464 28.5915 62.1111 29.3889 62.1111C30.1862 62.1111 30.8333 61.464 30.8333 60.6667C30.8333 59.8693 30.1862 59.2222 29.3889 59.2222Z" fill="#041728"/>
</g>
<g id="Group_24">
<path id="Vector_24" d="M22.1666 80.8889H17.8333V77.2778C17.8333 72.8953 21.3953 69.3333 25.7777 69.3333H35.1666V73.6666H25.7777C23.7873 73.6666 22.1666 75.2873 22.1666 77.2778V80.8889Z" fill="#041728"/>
</g>
<g id="Group_25">
<path id="Vector_25" d="M52.4999 67.8889C47.7217 67.8889 43.8333 64.0004 43.8333 59.2222C43.8333 54.444 47.7217 50.5555 52.4999 50.5555C57.2781 50.5555 61.1666 54.444 61.1666 59.2222C61.1666 64.0004 57.2781 67.8889 52.4999 67.8889ZM52.4999 54.8889C50.1108 54.8889 48.1666 56.8331 48.1666 59.2222C48.1666 61.6113 50.1108 63.5555 52.4999 63.5555C54.889 63.5555 56.8333 61.6113 56.8333 59.2222C56.8333 56.8331 54.889 54.8889 52.4999 54.8889Z" fill="#041728"/>
</g>
<g id="Group_26">
<path id="Vector_26" d="M68.3889 86.6667H64.0555V80.1667C64.0555 78.1762 62.4349 76.5556 60.4444 76.5556H44.5555C42.5651 76.5556 40.9444 78.1762 40.9444 80.1667V86.6667H36.6111V80.1667C36.6111 75.7842 40.1731 72.2222 44.5555 72.2222H60.4444C64.8269 72.2222 68.3889 75.7842 68.3889 80.1667V86.6667Z" fill="#041728"/>
</g>
<g id="Group_27">
<path id="Vector_27" d="M6.27783 82.3333H98.7223V86.6666H6.27783V82.3333Z" fill="#041728"/>
</g>
</g>
</svg>
