<svg width="93" height="60" viewBox="0 0 93 60" fill="none" xmlns="http://www.w3.org/2000/svg">
<path d="M44.4917 23.3984L47.646 23.4382L50.0595 38.2891L47.7307 38.2597L47.3073 35.3114V35.3538L44.661 35.3203L44.2376 38.2155L42.0783 38.1883L44.4917 23.3984ZM47.0321 33.3389L45.9948 26.0003L45.9524 25.9998L44.9362 33.3125L47.0321 33.3389ZM50.9775 23.4803L53.899 23.5172L56.1643 32.4169L56.2066 32.4174V23.5463L58.2813 23.5726V38.3929L55.8891 38.3627L53.0946 27.5085L53.0522 27.508V38.3269L50.9775 38.3007V23.4803ZM63.0818 38.6653C61.9668 38.6512 61.113 38.3228 60.5202 37.6802C59.9416 37.0377 59.6522 36.1378 59.6522 34.9804V27.0197C59.6522 25.8623 59.9416 24.9697 60.5202 24.3419C61.113 23.7142 61.9668 23.4074 63.0818 23.4215C64.1968 23.4355 65.0436 23.7638 65.6222 24.4063C66.215 25.0489 66.5114 25.949 66.5114 27.1064V28.6731L64.3097 28.6453V26.9303C64.3097 26.0129 63.9216 25.5493 63.1453 25.5395C62.3691 25.5297 61.981 25.9835 61.981 26.9009V35.1792C61.981 36.0825 62.3691 36.5391 63.1453 36.5489C63.9216 36.5587 64.3097 36.1119 64.3097 35.2086V32.9432L66.5114 32.971V35.067C66.5114 36.2244 66.215 37.117 65.6222 37.7446C65.0436 38.3725 64.1968 38.6794 63.0818 38.6653ZM67.693 23.6914L70.0217 23.7208V29.7549L72.5198 29.7864V23.7524L74.8485 23.7818V38.6022L72.5198 38.5728V31.9036L70.0217 31.872V38.5412L67.693 38.5118V23.6914ZM79.7372 38.8757C78.594 38.8612 77.719 38.5255 77.1121 37.8686C76.5052 37.2116 76.2018 36.2904 76.2018 35.1047V27.3134C76.2018 26.1278 76.5052 25.2142 77.1121 24.5726C77.719 23.931 78.594 23.6174 79.7372 23.6318C80.8804 23.6463 81.7554 23.982 82.3623 24.6389C82.9692 25.2958 83.2726 26.2171 83.2726 27.4028V35.194C83.2726 36.3797 82.9692 37.2933 82.3623 37.9349C81.7554 38.5765 80.8804 38.8901 79.7372 38.8757ZM79.7372 36.7585C80.5417 36.7686 80.9439 36.2867 80.9439 35.3128V27.2251C80.9439 26.2512 80.5417 25.7592 79.7372 25.749C78.9327 25.7389 78.5305 26.2207 78.5305 27.1947V35.2823C78.5305 36.2563 78.9327 36.7483 79.7372 36.7585ZM84.6358 23.9054L88.0866 23.949C89.2862 23.9642 90.1612 24.2575 90.7117 24.8291C91.2621 25.3865 91.5373 26.2439 91.5373 27.4013V28.3117C91.5373 29.8502 91.0292 30.8177 90.013 31.2142V31.2565C90.5776 31.433 90.9728 31.7838 91.1986 32.3089C91.4385 32.8342 91.5585 33.5344 91.5585 34.4095V37.0136C91.5585 37.4371 91.5726 37.7831 91.6008 38.0516C91.629 38.306 91.6996 38.561 91.8125 38.8165L89.4414 38.7865C89.3568 38.5455 89.3003 38.3189 89.2721 38.1069C89.2439 37.8948 89.2297 37.5135 89.2297 36.963V34.253C89.2297 33.5755 89.1168 33.1013 88.891 32.8302C88.6793 32.5594 88.3053 32.4206 87.769 32.4138L86.9645 32.4036V38.7552L84.6358 38.7258V23.9054ZM87.8113 30.2971C88.2771 30.303 88.6229 30.1874 88.8487 29.9503C89.0886 29.7134 89.2086 29.3126 89.2086 28.7481V27.6048C89.2086 27.0684 89.1098 26.679 88.9122 26.4366C88.7287 26.1943 88.4323 26.0706 88.023 26.0654L86.9645 26.052V30.2864L87.8113 30.2971ZM42.6922 42.3756L46.2065 42.42C47.4061 42.4352 48.2812 42.7285 48.8316 43.3001C49.382 43.8575 49.6572 44.7149 49.6572 45.8723V46.4651C49.6572 47.2273 49.5302 47.8468 49.2762 48.3234C49.0362 48.8003 48.6622 49.1414 48.1541 49.3467V49.389C49.3114 49.7989 49.8901 50.8365 49.8901 52.5021V53.7724C49.8901 54.9157 49.5867 55.787 48.9798 56.3862C48.387 56.9715 47.512 57.2569 46.3547 57.2423L42.6922 57.196V42.3756ZM45.9313 48.4506C46.397 48.4565 46.7428 48.3408 46.9686 48.1037C47.2085 47.8668 47.3285 47.4661 47.3285 46.9015V46.0758C47.3285 45.5394 47.2297 45.15 47.0321 44.9076C46.8486 44.6653 46.5522 44.5416 46.143 44.5364L45.0209 44.5223V48.4391L45.9313 48.4506ZM46.3547 55.1251C46.7639 55.1303 47.0674 55.0282 47.265 54.819C47.4626 54.5957 47.5614 54.2158 47.5614 53.6795V52.388C47.5614 51.7105 47.4414 51.2432 47.2015 50.9861C46.9757 50.715 46.5946 50.5761 46.0583 50.5694L45.0209 50.5563V55.1082L46.3547 55.1251ZM51.0396 42.4811L53.3683 42.5105V55.2137L57.2001 55.2621V57.3793L51.0396 57.3015V42.4811ZM61.3885 57.6439C60.2453 57.6295 59.3703 57.2938 58.7634 56.6368C58.1565 55.9799 57.8531 55.0586 57.8531 53.873V46.0817C57.8531 44.8961 58.1565 43.9824 58.7634 43.3408C59.3703 42.6992 60.2453 42.3856 61.3885 42.4001C62.5317 42.4145 63.4068 42.7502 64.0136 43.4071C64.6205 44.0641 64.924 44.9854 64.924 46.171V53.9623C64.924 55.1479 64.6205 56.0615 64.0136 56.7031C63.4068 57.3447 62.5317 57.6583 61.3885 57.6439ZM61.3885 55.5267C62.193 55.5369 62.5952 55.055 62.5952 54.0811V45.9934C62.5952 45.0195 62.193 44.5274 61.3885 44.5173C60.5841 44.5071 60.1818 44.989 60.1818 45.9629V54.0506C60.1818 55.0245 60.5841 55.5165 61.3885 55.5267ZM69.5685 57.7472C68.4536 57.7331 67.5997 57.4048 67.0069 56.7621C66.4283 56.1197 66.1389 55.2197 66.1389 54.0623V46.1017C66.1389 44.9443 66.4283 44.0516 67.0069 43.4238C67.5997 42.7961 68.4536 42.4893 69.5685 42.5034C70.6835 42.5175 71.5303 42.8458 72.109 43.4882C72.7017 44.1309 72.9981 45.0309 72.9981 46.1883V47.755L70.7964 47.7272V46.0123C70.7964 45.0948 70.4083 44.6312 69.632 44.6214C68.8558 44.6116 68.4677 45.0654 68.4677 45.9829V54.2611C68.4677 55.1644 68.8558 55.621 69.632 55.6308C70.4083 55.6406 70.7964 55.1939 70.7964 54.2905V52.0251L72.9981 52.0529V54.149C72.9981 55.3064 72.7017 56.1989 72.109 56.8266C71.5303 57.4544 70.6835 57.7613 69.5685 57.7472ZM74.1797 42.7734L76.5084 42.8028V49.0485L79.4722 42.8402L81.801 42.8696L79.0277 48.2758L81.8433 57.6905L79.4087 57.6598L77.4399 51.0293L76.5084 52.9018V57.6231L74.1797 57.5937V42.7734Z" fill="#041728"/>
<path d="M19.139 30.2104L10.4434 44.4372L27.4565 35.1959L19.139 30.2104Z" fill="#3E66FF" stroke="#041728" stroke-width="2.01638" stroke-linejoin="round"/>
<path d="M19.1387 11.3945L36.1619 2L53.0743 11.3945L36.051 20.7891L19.1387 11.3945Z" fill="#3E66FF" stroke="#041728" stroke-width="2.01638" stroke-linejoin="round"/>
<path d="M2 39.6705L10.4839 44.3836L19.1367 30.1787L27.5828 35.2858V53.7684L36.0264 58.6323V20.7258L19.1367 11.3629L2 39.6705Z" fill="#00DD91" stroke="#041728" stroke-width="2.01638" stroke-linejoin="round"/>
</svg>
