<svg width="96" height="96" viewBox="0 0 96 96" fill="none" xmlns="http://www.w3.org/2000/svg">
<path d="M84.8883 22.3387C84.8883 40.784 94.4429 53.4507 94.4429 62.3387C94.4429 71.2267 89.3336 89.8934 48.4456 89.8934C7.5576 89.8934 1.55493 64.7814 1.55493 55.0054C1.55493 9.22671 84.8883 -10.328 84.8883 22.3387Z" fill="#EFEFEF"/>
<path d="M74.667 81.3333C72.4617 81.3333 70.667 79.5386 70.667 77.3333C70.667 75.128 72.4617 73.3333 74.667 73.3333C76.8723 73.3333 78.667 75.128 78.667 77.3333C78.667 79.5386 76.8723 81.3333 74.667 81.3333ZM74.667 76C73.931 76 73.3337 76.5973 73.3337 77.3333C73.3337 78.0693 73.931 78.6666 74.667 78.6666C75.403 78.6666 76.0003 78.0693 76.0003 77.3333C76.0003 76.5973 75.403 76 74.667 76Z" fill="#A4AFC1"/>
<path d="M23.9216 14.1889L27.6929 10.4177L29.5785 12.3033L25.8072 16.0745L23.9216 14.1889Z" fill="#A4AFC1"/>
<path d="M13.0786 25.0298L16.8498 21.2585L18.7355 23.1442L14.9642 26.9154L13.0786 25.0298Z" fill="#A4AFC1"/>
<path d="M13.552 12.3023L15.4376 10.4167L19.2089 14.1879L17.3232 16.0735L13.552 12.3023Z" fill="#A4AFC1"/>
<path d="M61.9625 52.312C61.9625 60.64 58.6638 68.6533 52.7518 74.5653L52.6585 74.6587L50.8718 62.1867L61.9625 52.312Z" fill="#F3F3F1"/>
<path d="M43.688 34.0374C35.36 34.0374 27.3466 37.336 21.4346 43.248L21.3413 43.3414L33.8133 45.128L43.688 34.0374Z" fill="#F3F3F1"/>
<path d="M64.9781 37.6143C66.8006 35.7919 66.8006 32.8371 64.9781 31.0147C63.1557 29.1922 60.2009 29.1922 58.3784 31.0147C56.556 32.8371 56.556 35.7919 58.3784 37.6143C60.2009 39.4368 63.1557 39.4368 64.9781 37.6143Z" fill="#F3F3F1"/>
<path d="M43.4802 34.2667L30.9309 48.3253L47.6749 65.0693L61.7336 52.52C71.3576 44.296 78.2856 30.664 77.9896 18.008C65.3336 17.7147 51.7042 24.6427 43.4802 34.2667ZM58.3869 37.6133C56.5656 35.792 56.5656 32.8373 58.3869 31.0133C60.2082 29.1893 63.1629 29.192 64.9869 31.0133C66.8082 32.8347 66.8082 35.7893 64.9869 37.6133C63.1656 39.4347 60.2109 39.4347 58.3869 37.6133Z" fill="#00DD91"/>
<path d="M33.4533 71.6187C30.9493 74.1227 18 78 18 78C18 78 21.8773 65.0507 24.3813 62.5467C26.8853 60.0427 30.9493 60.0427 33.4533 62.5467C35.96 65.0507 35.96 69.112 33.4533 71.6187Z" fill="#00DD91"/>
<path d="M56.8718 62.1867L61.4025 58.152C61.7652 56.2373 61.9625 54.2853 61.9625 52.312L50.8718 62.1867L52.6585 74.6587L52.7518 74.5653C54.7118 72.6053 56.3518 70.4 57.7118 68.0453L56.8718 62.1867Z" fill="#D5DBE1"/>
<path d="M27.3413 43.3414L27.4346 43.248C31.7466 38.936 37.184 36.032 43.0373 34.768L43.688 34.0374C35.36 34.0374 27.3466 37.336 21.4346 43.248L21.3413 43.3414L33.8133 45.128L34.4933 44.3654L27.3413 43.3414Z" fill="#D5DBE1"/>
<path d="M64.3865 37.6134C62.5652 35.792 62.5652 32.8374 64.3865 31.0134C64.4798 30.92 64.5865 30.8534 64.6852 30.768C62.8505 29.216 60.1145 29.2827 58.3865 31.0134C56.5652 32.8347 56.5652 35.7894 58.3865 37.6134C60.1145 39.3414 62.8532 39.4107 64.6852 37.8587C64.5892 37.7734 64.4798 37.7067 64.3865 37.6134Z" fill="#D5DBE1"/>
<path d="M30.3813 62.5467C30.8427 62.0853 31.368 61.7387 31.9173 61.4453C29.4933 60.1547 26.424 60.5013 24.3813 62.5467C21.8773 65.0507 18 78 18 78C18 78 21.1813 77.0453 24.696 75.7813C25.9253 71.9707 28.528 64.4 30.3813 62.5467Z" fill="#00B871"/>
<path d="M36.5976 48.3253L49.1469 34.2667C56.1522 26.0693 67.0802 19.8453 77.9869 18.3573C77.9842 18.2427 77.9949 18.1253 77.9922 18.008C65.3362 17.7147 51.7042 24.64 43.4802 34.264L30.9309 48.3227L47.6749 65.0667L50.6696 62.3947L36.5976 48.3253Z" fill="#00B871"/>
<path d="M47.6749 67.0693C47.1629 67.0693 46.6509 66.872 46.2616 66.4827L42.5869 62.808L45.4163 59.9787L47.7549 62.3173L60.4029 51.0267C69.4669 43.2827 75.5443 31.0613 75.9763 20.024C64.9389 20.4587 52.7203 26.5333 45.0029 35.5653L33.6829 48.2453L42.0243 56.5867L39.1949 59.416L29.5176 49.7387C28.7683 48.9893 28.7336 47.784 29.4403 46.992L41.9896 32.936C50.8776 22.5333 65.3043 15.7253 78.0403 16.0107C79.1069 16.0347 79.9683 16.896 79.9923 17.9627C80.2856 30.624 73.4723 45.1227 63.0349 54.04L49.0109 66.56C48.6269 66.9013 48.1523 67.0693 47.6749 67.0693Z" fill="black"/>
<path d="M52.6638 76.6053C52.4638 76.6053 52.2638 76.576 52.0744 76.512C51.3544 76.272 50.7891 75.6933 50.6824 74.944L48.8958 62.472L52.8531 61.904L54.0211 70.0586C57.8984 64.9306 59.9651 58.7813 59.9651 52.3146H63.9651C63.9651 61.2586 60.4851 69.664 54.1678 75.9813C53.7731 76.3733 53.2158 76.6053 52.6638 76.6053Z" fill="black"/>
<path d="M33.5307 47.1067L21.0587 45.32C20.3067 45.2133 19.68 44.688 19.4427 43.9653C19.2054 43.2427 19.3974 42.4507 19.9387 41.9147C26.3387 35.5147 34.744 32.0347 43.688 32.0347V36.0347C37.1894 36.0347 31.016 38.12 25.928 41.976L34.0987 43.1467L33.5307 47.1067Z" fill="black"/>
<path d="M61.6881 40.976C59.9787 40.976 58.2721 40.3253 56.9734 39.0267C54.3761 36.4267 54.3761 32.1973 56.9734 29.5973C59.5734 26.9973 63.8027 26.9973 66.4027 29.5973C69.0001 32.1973 69.0001 36.4267 66.4027 39.0267C65.1014 40.328 63.3947 40.976 61.6881 40.976ZM61.6881 31.648C61.0054 31.648 60.3201 31.9067 59.8001 32.4267C58.7601 33.4667 58.7601 35.1573 59.8001 36.2C60.8374 37.24 62.5334 37.24 63.5707 36.2C64.6107 35.16 64.6107 33.4693 63.5707 32.4293C63.0534 31.9067 62.3707 31.648 61.6881 31.648Z" fill="black"/>
<path d="M17.9999 80C17.4773 80 16.9653 79.7947 16.5866 79.4133C16.0666 78.8933 15.8746 78.1307 16.0853 77.424C16.7546 75.1813 20.2453 63.8533 22.9706 61.1307C26.1519 57.952 31.6933 57.9547 34.8693 61.1307C36.4586 62.7227 37.3333 64.8347 37.3333 67.0827C37.3333 69.3307 36.4586 71.4426 34.8693 73.032C32.1466 75.7547 20.8159 79.2453 18.5759 79.9173C18.3866 79.9733 18.1919 80 17.9999 80ZM28.9199 62.6693C27.7893 62.6693 26.6586 63.0987 25.7973 63.96C24.6346 65.1227 22.6319 70.264 21.0746 74.9253C25.7359 73.368 30.8773 71.3653 32.0399 70.2027C33.7626 68.48 33.7626 65.68 32.0399 63.96C31.1786 63.0987 30.0506 62.6693 28.9199 62.6693Z" fill="black"/>
</svg>
