<svg width="96" height="96" viewBox="0 0 96 96" fill="none" xmlns="http://www.w3.org/2000/svg">
<path d="M84.888 73.6613C84.888 55.216 94.4427 42.5493 94.4427 33.6613C94.4427 24.7733 89.3334 6.10666 48.4454 6.10666C7.55735 6.10666 1.55469 31.2187 1.55469 40.9947C1.55469 86.7733 84.888 106.328 84.888 73.6613Z" fill="#EFEFEF"/>
<path d="M26.5879 14.1889L30.3591 10.4177L32.2447 12.3033L28.4735 16.0745L26.5879 14.1889Z" fill="#A4AFC1"/>
<path d="M15.7454 25.0298L19.5166 21.2585L21.4022 23.1441L17.631 26.9154L15.7454 25.0298Z" fill="#A4AFC1"/>
<path d="M16.2185 12.3023L18.1041 10.4167L21.8754 14.1879L19.9897 16.0735L16.2185 12.3023Z" fill="#A4AFC1"/>
<path d="M69.3333 56.6667C71.1743 56.6667 72.6667 55.1743 72.6667 53.3333C72.6667 51.4924 71.1743 50 69.3333 50C67.4924 50 66 51.4924 66 53.3333C66 55.1743 67.4924 56.6667 69.3333 56.6667Z" fill="#F3F3F1"/>
<path d="M26.6666 56.6667C28.5075 56.6667 29.9999 55.1743 29.9999 53.3333C29.9999 51.4924 28.5075 50 26.6666 50C24.8256 50 23.3333 51.4924 23.3333 53.3333C23.3333 55.1743 24.8256 56.6667 26.6666 56.6667Z" fill="#F3F3F1"/>
<path d="M48 58C51.3137 58 54 55.3137 54 52C54 48.6863 51.3137 46 48 46C44.6863 46 42 48.6863 42 52C42 55.3137 44.6863 58 48 58Z" fill="#F3F3F1"/>
<path d="M60.6666 77.3333V71.3333C60.6666 68.3867 58.2799 66 55.3333 66H40.6666C37.7199 66 35.3333 68.3867 35.3333 71.3333V77.3333H60.6666Z" fill="#F3F3F1"/>
<path d="M78.0001 72V68.6667C78.0001 65.72 75.6134 63.3333 72.6667 63.3333H66.0001C63.0534 63.3333 60.6667 65.72 60.6667 68.6667V72H78.0001Z" fill="#F3F3F1"/>
<path d="M35.3333 72V68.6667C35.3333 65.72 32.9467 63.3333 30 63.3333H23.3333C20.3867 63.3333 18 65.72 18 68.6667V72H35.3333Z" fill="#F3F3F1"/>
<path d="M38.7547 38L36.6667 26.888L42.7814 29.6027L48.0001 20.6667L53.2188 29.6027L59.3334 26.888L57.2454 38H38.7547Z" fill="#00DD91"/>
<path d="M72 53.3333C72 52.8267 72.1307 52.36 72.3333 51.9307C71.8 50.7973 70.6667 50 69.3333 50C67.4933 50 66 51.4933 66 53.3333C66 55.1733 67.4933 56.6667 69.3333 56.6667C70.6667 56.6667 71.8 55.8693 72.3333 54.736C72.1307 54.3067 72 53.84 72 53.3333Z" fill="#D5DBE1"/>
<path d="M29.3333 53.3333C29.3333 52.8267 29.4639 52.36 29.6666 51.9307C29.1333 50.7973 27.9999 50 26.6666 50C24.8266 50 23.3333 51.4933 23.3333 53.3333C23.3333 55.1733 24.8266 56.6667 26.6666 56.6667C27.9999 56.6667 29.1333 55.8693 29.6666 54.736C29.4639 54.3067 29.3333 53.84 29.3333 53.3333Z" fill="#D5DBE1"/>
<path d="M48 52C48 49.784 49.2133 47.872 51 46.832C50.1147 46.3173 49.0987 46 48 46C44.6853 46 42 48.6853 42 52C42 55.3147 44.6853 58 48 58C49.0987 58 50.1147 57.6827 51 57.168C49.2133 56.128 48 54.216 48 52Z" fill="#D5DBE1"/>
<path d="M46.6666 66H40.6666C37.7199 66 35.3333 68.3867 35.3333 71.3333V77.3333H41.3333V71.3333C41.3333 68.3867 43.7199 66 46.6666 66Z" fill="#D5DBE1"/>
<path d="M72.0001 63.3333H66.0001C63.0534 63.3333 60.6667 65.72 60.6667 68.6667V72H66.6667V68.6667C66.6667 65.72 69.0534 63.3333 72.0001 63.3333Z" fill="#D5DBE1"/>
<path d="M29.3333 63.3333H23.3333C20.3867 63.3333 18 65.72 18 68.6667V72H24V68.6667C24 65.72 26.3867 63.3333 29.3333 63.3333Z" fill="#D5DBE1"/>
<path d="M42.7841 29.6027L36.6667 26.888L38.7547 38H44.7548L43.0801 29.0933L42.7841 29.6027Z" fill="#00B871"/>
<path d="M69.3333 58.6667C66.392 58.6667 64 56.2747 64 53.3333C64 50.392 66.392 48 69.3333 48C72.2747 48 74.6667 50.392 74.6667 53.3333C74.6667 56.2747 72.2747 58.6667 69.3333 58.6667ZM69.3333 52C68.5973 52 68 52.5973 68 53.3333C68 54.0693 68.5973 54.6667 69.3333 54.6667C70.0693 54.6667 70.6667 54.0693 70.6667 53.3333C70.6667 52.5973 70.0693 52 69.3333 52Z" fill="black"/>
<path d="M80 72H76V68.6667C76 66.8293 74.504 65.3333 72.6667 65.3333H64V61.3333H72.6667C76.712 61.3333 80 64.6213 80 68.6667V72Z" fill="black"/>
<path d="M26.6666 58.6667C23.7253 58.6667 21.3333 56.2747 21.3333 53.3333C21.3333 50.392 23.7253 48 26.6666 48C29.6079 48 31.9999 50.392 31.9999 53.3333C31.9999 56.2747 29.6079 58.6667 26.6666 58.6667ZM26.6666 52C25.9306 52 25.3333 52.5973 25.3333 53.3333C25.3333 54.0693 25.9306 54.6667 26.6666 54.6667C27.4026 54.6667 27.9999 54.0693 27.9999 53.3333C27.9999 52.5973 27.4026 52 26.6666 52Z" fill="black"/>
<path d="M20 72H16V68.6667C16 64.6213 19.288 61.3333 23.3333 61.3333H32V65.3333H23.3333C21.496 65.3333 20 66.8293 20 68.6667V72Z" fill="black"/>
<path d="M48 60C43.5893 60 40 56.4107 40 52C40 47.5893 43.5893 44 48 44C52.4107 44 56 47.5893 56 52C56 56.4107 52.4107 60 48 60ZM48 48C45.7947 48 44 49.7947 44 52C44 54.2053 45.7947 56 48 56C50.2053 56 52 54.2053 52 52C52 49.7947 50.2053 48 48 48Z" fill="black"/>
<path d="M62.6666 77.3333H58.6666V71.3333C58.6666 69.496 57.1706 68 55.3333 68H40.6666C38.8293 68 37.3333 69.496 37.3333 71.3333V77.3333H33.3333V71.3333C33.3333 67.288 36.6213 64 40.6666 64H55.3333C59.3786 64 62.6666 67.288 62.6666 71.3333V77.3333Z" fill="black"/>
<path d="M57.2453 40H38.7519C37.7893 40 36.9653 39.3147 36.7866 38.3707L34.6986 27.2587C34.5626 26.528 34.8399 25.7813 35.4239 25.32C36.0053 24.8613 36.7946 24.7573 37.4773 25.0613L41.9573 27.0507L46.2719 19.6613C46.9919 18.432 49.0079 18.432 49.7279 19.6613L54.0426 27.0507L58.5226 25.0613C59.1999 24.7573 59.9919 24.8613 60.5759 25.32C61.1599 25.7813 61.4373 26.528 61.3013 27.2587L59.2133 38.3707C59.0346 39.3147 58.2079 40 57.2453 40ZM40.4133 36H55.5866L56.6639 30.2613L54.0266 31.432C53.0906 31.8427 52.0026 31.4933 51.4879 30.6107L47.9999 24.6347L44.5093 30.6133C43.9946 31.496 42.9013 31.8427 41.9706 31.4347L39.3333 30.264L40.4133 36Z" fill="black"/>
<path d="M5.33325 73.3333H90.6666V77.3333H5.33325V73.3333Z" fill="black"/>
</svg>
